<?xml version="1.0" encoding="UTF-8"?>
<svg width="700pt" height="700pt" version="1.1" viewBox="0 0 700 700" xmlns="http://www.w3.org/2000/svg" xmlns:xlink="http://www.w3.org/1999/xlink">
 <defs>
  <symbol id="v" overflow="visible">
   <path d="m17.047-1.0156c-0.875 0.46094-1.793 0.80469-2.75 1.0312-0.94922 0.22656-1.9375 0.34375-2.9688 0.34375-3.0938 0-5.5469-0.86328-7.3594-2.5938-1.8047-1.7266-2.7031-4.0703-2.7031-7.0312 0-2.957 0.89844-5.3008 2.7031-7.0312 1.8125-1.7266 4.2656-2.5938 7.3594-2.5938 1.0312 0 2.0195 0.12109 2.9688 0.35938 0.95703 0.23047 1.875 0.57031 2.75 1.0156v3.8438c-0.88672-0.60156-1.7617-1.0469-2.625-1.3281-0.85547-0.28125-1.7617-0.42188-2.7188-0.42188-1.7109 0-3.0547 0.54688-4.0312 1.6406-0.96875 1.0938-1.4531 2.6016-1.4531 4.5156 0 1.918 0.48438 3.4219 1.4531 4.5156 0.97656 1.0938 2.3203 1.6406 4.0312 1.6406 0.95703 0 1.8633-0.14062 2.7188-0.42188 0.86328-0.28125 1.7383-0.72266 2.625-1.3281z"/>
  </symbol>
  <symbol id="d" overflow="visible">
   <path d="m12.484-10.125c-0.39844-0.1875-0.78906-0.32031-1.1719-0.40625-0.38672-0.082031-0.77344-0.125-1.1562-0.125-1.1484 0-2.0273 0.36719-2.6406 1.0938-0.61719 0.73047-0.92188 1.7812-0.92188 3.1562v6.4062h-4.4531v-13.922h4.4531v2.2812c0.5625-0.90625 1.2109-1.5664 1.9531-1.9844 0.75-0.41406 1.6406-0.625 2.6719-0.625 0.15625 0 0.31641 0.007812 0.48438 0.015625 0.17578 0.011719 0.42969 0.039063 0.76562 0.078125z"/>
  </symbol>
  <symbol id="b" overflow="visible">
   <path d="m16.031-7v1.2656h-10.406c0.11328 1.0547 0.49219 1.8398 1.1406 2.3594 0.64453 0.52344 1.5469 0.78125 2.7031 0.78125 0.9375 0 1.8945-0.14062 2.875-0.42188 0.97656-0.28125 1.9883-0.70312 3.0312-1.2656v3.4375c-1.0547 0.39844-2.1055 0.69531-3.1562 0.89062-1.0547 0.20703-2.1055 0.3125-3.1562 0.3125-2.5234 0-4.4805-0.64062-5.875-1.9219-1.3984-1.2812-2.0938-3.0781-2.0938-5.3906 0-2.2695 0.67969-4.0508 2.0469-5.3438 1.375-1.3008 3.2656-1.9531 5.6719-1.9531 2.1875 0 3.9375 0.66406 5.25 1.9844 1.3125 1.3125 1.9688 3.0703 1.9688 5.2656zm-4.5781-1.4688c0-0.85156-0.24609-1.5352-0.73438-2.0469-0.49219-0.51953-1.1367-0.78125-1.9375-0.78125-0.85547 0-1.5547 0.24609-2.0938 0.73438-0.54297 0.48047-0.875 1.1797-1 2.0938z"/>
  </symbol>
  <symbol id="g" overflow="visible">
   <path d="m8.375-6.2656c-0.92969 0-1.625 0.16406-2.0938 0.48438-0.46875 0.3125-0.70312 0.77344-0.70312 1.375 0 0.57422 0.1875 1.0234 0.5625 1.3438 0.38281 0.3125 0.91016 0.46875 1.5781 0.46875 0.83203 0 1.5352-0.30078 2.1094-0.90625 0.57031-0.60156 0.85938-1.3516 0.85938-2.25v-0.51562zm6.7969-1.6719v7.9375h-4.4844v-2.0625c-0.59375 0.84375-1.2656 1.4609-2.0156 1.8438-0.74219 0.38281-1.6484 0.57812-2.7188 0.57812-1.4375 0-2.6094-0.41406-3.5156-1.25-0.89844-0.84375-1.3438-1.9375-1.3438-3.2812 0-1.6328 0.5625-2.832 1.6875-3.5938 1.125-0.75781 2.8828-1.1406 5.2812-1.1406h2.625v-0.35938c0-0.69531-0.28125-1.207-0.84375-1.5312-0.55469-0.33203-1.4141-0.5-2.5781-0.5-0.96094 0-1.8516 0.10156-2.6719 0.29688-0.8125 0.1875-1.5742 0.46875-2.2812 0.84375v-3.3906c0.94531-0.22656 1.8984-0.39844 2.8594-0.51562 0.96875-0.125 1.9297-0.1875 2.8906-0.1875 2.5078 0 4.3203 0.49609 5.4375 1.4844 1.1133 0.99219 1.6719 2.6016 1.6719 4.8281z"/>
  </symbol>
  <symbol id="c" overflow="visible">
   <path d="m7-17.875v3.9531h4.5781v3.1875h-4.5781v5.9062c0 0.64844 0.125 1.0859 0.375 1.3125 0.25781 0.21875 0.76953 0.32812 1.5312 0.32812h2.2969v3.1875h-3.8281c-1.75 0-2.9961-0.36328-3.7344-1.0938-0.73047-0.73828-1.0938-1.9844-1.0938-3.7344v-5.9062h-2.2188v-3.1875h2.2188v-3.9531z"/>
  </symbol>
  <symbol id="f" overflow="visible">
   <path d="m11.609-11.875v-7.4688h4.4688v19.344h-4.4688v-2.0156c-0.61719 0.82422-1.293 1.4297-2.0312 1.8125-0.74219 0.375-1.5938 0.5625-2.5625 0.5625-1.7109 0-3.1172-0.67969-4.2188-2.0469-1.1055-1.3633-1.6562-3.1172-1.6562-5.2656 0-2.1445 0.55078-3.8945 1.6562-5.25 1.1016-1.3633 2.5078-2.0469 4.2188-2.0469 0.96875 0 1.8203 0.19531 2.5625 0.57812 0.73828 0.38672 1.4141 0.98438 2.0312 1.7969zm-2.9375 9c0.95703 0 1.6875-0.34375 2.1875-1.0312 0.5-0.69531 0.75-1.7109 0.75-3.0469 0-1.3203-0.25-2.332-0.75-3.0312-0.5-0.69531-1.2305-1.0469-2.1875-1.0469-0.9375 0-1.6641 0.35156-2.1719 1.0469-0.5 0.69922-0.75 1.7109-0.75 3.0312 0 1.3359 0.25 2.3516 0.75 3.0469 0.50781 0.6875 1.2344 1.0312 2.1719 1.0312z"/>
  </symbol>
  <symbol id="l" overflow="visible">
   <path d="m9.5469-2.875c0.94531 0 1.6719-0.34375 2.1719-1.0312 0.50781-0.69531 0.76562-1.7109 0.76562-3.0469 0-1.3203-0.25781-2.332-0.76562-3.0312-0.5-0.69531-1.2266-1.0469-2.1719-1.0469-0.96094 0-1.6953 0.35547-2.2031 1.0625-0.5 0.69922-0.75 1.7031-0.75 3.0156 0 1.3242 0.25 2.3359 0.75 3.0312 0.50781 0.69922 1.2422 1.0469 2.2031 1.0469zm-2.9531-9c0.60156-0.8125 1.2812-1.4102 2.0312-1.7969 0.75-0.38281 1.6094-0.57812 2.5781-0.57812 1.707 0 3.1133 0.68359 4.2188 2.0469 1.1016 1.3555 1.6562 3.1055 1.6562 5.25 0 2.1484-0.55469 3.9023-1.6562 5.2656-1.1055 1.3672-2.5117 2.0469-4.2188 2.0469-0.96875 0-1.8281-0.19531-2.5781-0.57812s-1.4297-0.98438-2.0312-1.7969v2.0156h-4.4531v-19.344h4.4531z"/>
  </symbol>
  <symbol id="k" overflow="visible">
   <path d="m0.3125-13.922h4.4531l3.7344 9.4531 3.1875-9.4531h4.4375l-5.8438 15.234c-0.59375 1.5508-1.2812 2.6328-2.0625 3.25-0.78125 0.625-1.8125 0.9375-3.0938 0.9375h-2.5781v-2.9219h1.3906c0.75781 0 1.3125-0.12109 1.6562-0.35938 0.34375-0.24219 0.60938-0.67188 0.79688-1.2969l0.125-0.39062z"/>
  </symbol>
  <symbol id="e" overflow="visible">
   <path d="m0.76562-18.562h4.5781l3.2031 13.484 3.1875-13.484h4.6094l3.1875 13.484 3.2031-13.484h4.5469l-4.375 18.562h-5.5156l-3.375-14.109-3.3281 14.109h-5.5156z"/>
  </symbol>
  <symbol id="j" overflow="visible">
   <path d="m2.1406-13.922h4.4531v13.922h-4.4531zm0-5.4219h4.4531v3.6406h-4.4531z"/>
  </symbol>
  <symbol id="i" overflow="visible">
   <path d="m2.1406-19.344h4.4531v19.344h-4.4531z"/>
  </symbol>
  <symbol id="h" overflow="visible">
   <path d="m15.031-11.609c0.57031-0.86328 1.2422-1.5195 2.0156-1.9688 0.76953-0.44531 1.6172-0.67188 2.5469-0.67188 1.6016 0 2.8203 0.49609 3.6562 1.4844 0.84375 0.98047 1.2656 2.4141 1.2656 4.2969v8.4688h-4.4844v-7.2656c0.007812-0.10156 0.015625-0.21094 0.015625-0.32812 0.007813-0.11328 0.015625-0.28125 0.015625-0.5 0-0.97656-0.14844-1.6914-0.4375-2.1406-0.29297-0.44531-0.76172-0.67188-1.4062-0.67188-0.84375 0-1.4961 0.35156-1.9531 1.0469-0.46094 0.69922-0.69922 1.7109-0.71875 3.0312v6.8281h-4.4688v-7.2656c0-1.5312-0.13672-2.5195-0.40625-2.9688-0.26172-0.44531-0.73047-0.67188-1.4062-0.67188-0.85547 0-1.5156 0.35547-1.9844 1.0625-0.46094 0.69922-0.6875 1.6992-0.6875 3v6.8438h-4.4844v-13.922h4.4844v2.0469c0.53906-0.78906 1.1641-1.3828 1.875-1.7812 0.70703-0.39453 1.4883-0.59375 2.3438-0.59375 0.95703 0 1.8047 0.23438 2.5469 0.70312 0.73828 0.46094 1.2969 1.1055 1.6719 1.9375z"/>
  </symbol>
  <symbol id="a" overflow="visible">
   <path d="m8.7656-11.078c-0.99219 0-1.7461 0.35547-2.2656 1.0625-0.51172 0.71094-0.76562 1.7305-0.76562 3.0625 0 1.3359 0.25391 2.3555 0.76562 3.0625 0.51953 0.71094 1.2734 1.0625 2.2656 1.0625 0.96875 0 1.707-0.35156 2.2188-1.0625 0.50781-0.70703 0.76562-1.7266 0.76562-3.0625 0-1.332-0.25781-2.3516-0.76562-3.0625-0.51172-0.70703-1.25-1.0625-2.2188-1.0625zm0-3.1719c2.3945 0 4.2656 0.64844 5.6094 1.9375 1.3438 1.293 2.0156 3.0781 2.0156 5.3594 0 2.293-0.67188 4.0859-2.0156 5.375-1.3438 1.293-3.2148 1.9375-5.6094 1.9375-2.4062 0-4.2891-0.64453-5.6406-1.9375-1.3555-1.2891-2.0312-3.082-2.0312-5.375 0-2.2812 0.67578-4.0664 2.0312-5.3594 1.3516-1.2891 3.2344-1.9375 5.6406-1.9375z"/>
  </symbol>
  <symbol id="u" overflow="visible">
   <path d="m13.016-13.484v3.375c-0.96094-0.39453-1.8828-0.69141-2.7656-0.89062-0.88672-0.19531-1.7188-0.29688-2.5-0.29688-0.85547 0-1.4844 0.10938-1.8906 0.32812-0.40625 0.21094-0.60938 0.53125-0.60938 0.96875 0 0.35547 0.14844 0.625 0.45312 0.8125 0.3125 0.1875 0.86719 0.32812 1.6719 0.42188l0.79688 0.10938c2.2695 0.29297 3.7969 0.77344 4.5781 1.4375 0.78906 0.65625 1.1875 1.6992 1.1875 3.125 0 1.4805-0.54688 2.5938-1.6406 3.3438-1.0938 0.74219-2.7266 1.1094-4.8906 1.1094-0.91797 0-1.8711-0.074219-2.8594-0.21875-0.98047-0.14453-1.9844-0.36328-3.0156-0.65625v-3.375c0.88281 0.42969 1.7891 0.75 2.7188 0.96875 0.9375 0.21875 1.8828 0.32812 2.8438 0.32812 0.875 0 1.5312-0.11719 1.9688-0.35938 0.4375-0.23828 0.65625-0.59766 0.65625-1.0781 0-0.39453-0.15234-0.6875-0.45312-0.875-0.30469-0.19531-0.90625-0.35156-1.8125-0.46875l-0.78125-0.09375c-1.9805-0.25-3.3711-0.70703-4.1719-1.375-0.79297-0.67578-1.1875-1.6953-1.1875-3.0625 0-1.4766 0.50391-2.5703 1.5156-3.2812 1.0078-0.70703 2.5625-1.0625 4.6562-1.0625 0.82031 0 1.6797 0.0625 2.5781 0.1875 0.90625 0.125 1.8906 0.32031 2.9531 0.57812z"/>
  </symbol>
  <symbol id="t" overflow="visible">
   <path d="m11.297-19.344v2.9219h-2.4531c-0.63672 0-1.0781 0.11719-1.3281 0.34375-0.25 0.23047-0.375 0.625-0.375 1.1875v0.96875h3.8125v3.1875h-3.8125v10.734h-4.4375v-10.734h-2.2188v-3.1875h2.2188v-0.96875c0-1.5078 0.42188-2.6289 1.2656-3.3594 0.84375-0.72656 2.1484-1.0938 3.9219-1.0938z"/>
  </symbol>
  <symbol id="s" overflow="visible">
   <path d="m16.125-8.4688v8.4688h-4.4688v-6.4688c0-1.2188-0.027344-2.0508-0.078125-2.5-0.054687-0.45703-0.14844-0.79688-0.28125-1.0156-0.17969-0.28906-0.41797-0.51562-0.71875-0.67188-0.29297-0.16406-0.63281-0.25-1.0156-0.25-0.92969 0-1.6562 0.35938-2.1875 1.0781-0.52344 0.71875-0.78125 1.7148-0.78125 2.9844v6.8438h-4.4531v-19.344h4.4531v7.4688c0.66406-0.8125 1.375-1.4102 2.125-1.7969 0.75781-0.38281 1.5938-0.57812 2.5-0.57812 1.6133 0 2.832 0.49609 3.6562 1.4844 0.83203 0.98047 1.25 2.4141 1.25 4.2969z"/>
  </symbol>
  <symbol id="r" overflow="visible">
   <path d="m2.3438-18.562h5.3438l6.7344 12.734v-12.734h4.5469v18.562h-5.3438l-6.75-12.734v12.734h-4.5312z"/>
  </symbol>
  <symbol id="q" overflow="visible">
   <path d="m1.9844-5.4219v-8.5h4.4844v1.3906c0 0.76172-0.007812 1.7109-0.015625 2.8438-0.011719 1.1367-0.015625 1.8984-0.015625 2.2812 0 1.1172 0.023438 1.9219 0.078125 2.4219 0.0625 0.49219 0.16406 0.84375 0.3125 1.0625 0.17578 0.29297 0.41016 0.52344 0.70312 0.6875 0.30078 0.15625 0.64062 0.23438 1.0156 0.23438 0.92578 0 1.6562-0.35156 2.1875-1.0625 0.53125-0.71875 0.79688-1.7109 0.79688-2.9844v-6.875h4.4531v13.922h-4.4531v-2.0156c-0.66797 0.8125-1.375 1.4141-2.125 1.7969s-1.5781 0.57812-2.4844 0.57812c-1.6055 0-2.8281-0.48828-3.6719-1.4688-0.84375-0.98828-1.2656-2.4258-1.2656-4.3125z"/>
  </symbol>
  <symbol id="p" overflow="visible">
   <path d="m16.125-8.4688v8.4688h-4.4688v-6.4844c0-1.207-0.027344-2.0352-0.078125-2.4844-0.054687-0.45703-0.14844-0.79688-0.28125-1.0156-0.17969-0.28906-0.41797-0.51562-0.71875-0.67188-0.29297-0.16406-0.63281-0.25-1.0156-0.25-0.92969 0-1.6562 0.35938-2.1875 1.0781-0.52344 0.71875-0.78125 1.7148-0.78125 2.9844v6.8438h-4.4531v-13.922h4.4531v2.0469c0.66406-0.8125 1.375-1.4102 2.125-1.7969 0.75781-0.38281 1.5938-0.57812 2.5-0.57812 1.6133 0 2.832 0.49609 3.6562 1.4844 0.83203 0.98047 1.25 2.4141 1.25 4.2969z"/>
  </symbol>
  <symbol id="o" overflow="visible">
   <path d="m2.3438-18.562h7.9375c2.3516 0 4.1602 0.52734 5.4219 1.5781 1.2695 1.0547 1.9062 2.5469 1.9062 4.4844 0 1.9492-0.63672 3.4492-1.9062 4.5-1.2617 1.043-3.0703 1.5625-5.4219 1.5625h-3.1562v6.4375h-4.7812zm4.7812 3.4688v5.1875h2.6406c0.92578 0 1.6406-0.22266 2.1406-0.67188 0.50781-0.45703 0.76562-1.0977 0.76562-1.9219 0-0.83203-0.25781-1.4727-0.76562-1.9219-0.5-0.44531-1.2148-0.67188-2.1406-0.67188z"/>
  </symbol>
  <symbol id="n" overflow="visible">
   <path d="m2.1406-13.922h4.4531v13.672c0 1.8633-0.44922 3.2852-1.3438 4.2656-0.89844 0.98828-2.1953 1.4844-3.8906 1.4844h-2.2031v-2.9219h0.76562c0.84375 0 1.4219-0.19531 1.7344-0.57812 0.32031-0.38672 0.48438-1.1367 0.48438-2.25zm0-5.4219h4.4531v3.6406h-4.4531z"/>
  </symbol>
  <symbol id="m" overflow="visible">
   <path d="m13.391-13.484v3.625c-0.60547-0.41406-1.2148-0.72266-1.8281-0.92188-0.60547-0.19531-1.2344-0.29688-1.8906-0.29688-1.2422 0-2.2109 0.36719-2.9062 1.0938-0.6875 0.71875-1.0312 1.7305-1.0312 3.0312 0 1.3047 0.34375 2.3203 1.0312 3.0469 0.69531 0.71875 1.6641 1.0781 2.9062 1.0781 0.69531 0 1.3594-0.097656 1.9844-0.29688 0.625-0.20703 1.2031-0.51562 1.7344-0.92188v3.6406c-0.69922 0.25-1.4062 0.4375-2.125 0.5625-0.71875 0.13281-1.4375 0.20312-2.1562 0.20312-2.5117 0-4.4766-0.64062-5.8906-1.9219-1.418-1.2891-2.125-3.0859-2.125-5.3906 0-2.2891 0.70703-4.0781 2.125-5.3594 1.4141-1.2891 3.3789-1.9375 5.8906-1.9375 0.72656 0 1.4453 0.0625 2.1562 0.1875 0.70703 0.125 1.4141 0.32031 2.125 0.57812z"/>
  </symbol>
 </defs>
 <g>
  <path d="m263.01 363.97c0.33984 0.039063 34.418 3.6406 75.137 3.6406 41.457 0 82.082-3.1953 82.488-3.2266 1.8242-0.14062 3.1875-1.7461 3.0391-3.5703-0.14062-1.8242-1.7461-3.1875-3.5703-3.043-0.40234 0.035156-40.785 3.207-81.965 3.207-40.344 0-74.094-3.5586-74.434-3.5977-1.8242-0.19922-3.457 1.125-3.6484 2.9414-0.19531 1.8164 1.1289 3.457 2.9531 3.6484z"/>
  <path d="m431.49 405.66c-0.40625 0.039063-41.047 4.125-93.348 4.125-43.527 0-86.457-4.6797-86.887-4.7227-1.8281-0.20312-3.4609 1.1133-3.6602 2.9336-0.20312 1.8242 1.1094 3.4609 2.9336 3.6641 0.43359 0.046875 43.711 4.7617 87.613 4.7617 52.637 0 93.613-4.1172 94.02-4.1523 1.8242-0.18359 3.1523-1.8125 2.9688-3.6406-0.1875-1.8359-1.8164-3.1602-3.6406-2.9688z"/>
  <path d="m537.64 388.31c-7.0391-26.98-20.633-46.109-40.402-56.852-13.668-7.4336-28.117-9.6172-40.359-9.6172-8.9531 0-17.758 1.6836-23.336 2.8867-1.1953-2.6719-4.2305-7.3047-5.0977-9.7695-0.25391-0.72266-0.59375-2.918-0.64844-3.1445 0.078125-2.1328 0.99609-8.9336 2.4727-13.879 1.3711-4.5703 0.83594-8.832-1.5117-11.996-1.3047-1.7578-4.3789-4.7148-10.328-4.7305h-0.40625c-2.2148 0-4.8125 0.0625-7.707 0.16406-0.28906 2.5742-0.55859 5.1406-0.69922 7.7344-16.051 0.61719-41.594 2.5-66.84 2.957-3.7578 0.070312-7.5156 0.097656-11.23 0.097656-23.988 0-46.164-1.3203-56.004-2.6719-2.6016-0.35547-4.9727-0.60547-7.1523-0.76172-0.015625-0.21875-0.03125-0.44141-0.03125-0.67187 0-2.3555 0.035156-4.7109 0.14844-7.0508-1.9023-0.12891-3.707-0.19922-5.4062-0.19922-20.426 0-25.152 10.176-28.953 18.352-0.26562 0.57031-0.53516 1.1523-0.81641 1.7305-0.85547 1.8086-3.4727 7.3047-0.37109 12.207 1.7578 2.7852 4.7852 4.3672 8.3203 4.3672 3.4062 0 7.2031-1.582 9.6367-2.8086h0.054688c1.6328 0 2.6367 0.27344 3.0742 0.46875 0.003906 0.10547 0.011719 0.25781 0 0.45703-0.19922 3.9648-1.3789 7.4336-3.5117 10.301-0.73828 0.80859-1.4375 1.6484-2.082 2.5039-0.066407 0.085938-0.13281 0.16797-0.19922 0.25781-4.2812 5.793-6.543 12.621-6.543 19.754 0 3.2461 0.46875 6.4414 1.3984 9.5195-0.31641 0.96094-0.87109 2.25-1.8633 3.8398-8.7578 7.2227-13.75 17.664-13.75 28.844 0 4.5625 0.82812 9.0039 2.4648 13.242-0.29688 1.625-1.2383 4.3945-4.0898 8.2461-0.32422 0.44922-0.64844 0.91016-0.94531 1.3789-8.1719 7.8945-12.836 18.746-12.836 29.941 0 5.625 1.125 11.074 3.3438 16.227-0.19531 1.0781-0.66797 2.6016-1.7305 4.5625-5.7031 4.9297-10.133 11.145-12.859 18.066-0.79297 2.0117-1.4414 4.082-1.9336 6.1719-0.50391 2.1211-0.85156 4.2695-1.043 6.375-0.19531 2.1523-0.23047 4.3164-0.11719 6.4414 0.41797 7.918 5.6875 14.488 15.648 19.543 7.5312 3.8242 17.789 6.8867 31.359 9.3789 23.031 4.2266 54.594 6.5469 93.809 6.8984 2.4375 0.027344 4.8984 0.035157 7.3203 0.035157 35.859 0 68.426-2.4688 91.703-6.9531 13.207-2.5508 23.672-5.7695 31.105-9.5664 9.9492-5.0898 15.195-11.598 15.609-19.336 0.082031-1.5742 0.0625-3.1562-0.035156-4.7695 0.10547-0.47266 0.16797-0.94531 0.12109-1.4141-0.1875-2.0977-0.53906-4.25-1.043-6.375-0.011719-0.046875-0.027344-0.089844-0.035156-0.13672 14.426-5.0078 33.961-14.828 46.344-33.402 12.133-18.168 14.809-40.664 7.9844-66.844zm-75.844 54.133c-0.54297 0.054688-55.184 5.3242-123.18 5.3242-69.121 0-113.86-4.207-118.66-4.6797 0.050781-5.082 1.2617-10.133 3.5547-14.668 2.3555-4.668 6.082-7.8281 9.1172-11.949 1.8359-2.4883 3.3359-5.2891 4.2812-8.2461 0.41406-1.2812 0.9375-2.8047 1.0117-4.1523 0.12891-2.1836-1.1211-4.2148-1.6641-6.2734-0.62109-2.3359-0.90625-4.7734-0.90625-7.1875 0-5.668 1.6836-11.27 4.8125-15.996 3.0391-4.582 7.9219-7.7578 9.957-13.008 1.6836-4.3281-0.55469-8.7578-0.55469-13.207 0-5.6602 1.8828-10.895 5.0703-15.164 0.015625-0.027344 0.03125-0.039063 0.039063-0.0625 0.58984-0.77734 1.2148-1.5273 1.8906-2.2383 2.043-2.6406 4.957-7.4844 5.332-14.957 0.40234-8.1094-7.0391-9.1523-10.91-9.1523-1.3477 0-2.2617 0.12109-2.2617 0.12109s-4.6797 2.6836-7.4258 2.6836c-1.8633 0-2.8359-1.2266-0.86719-5.3672 4.0352-8.4766 6.0703-15.617 22.684-15.617 1.5898 0 3.3203 0.070313 5.1875 0.20703l1.1719 5.8594s0.22266 3.8555 10 5.3828c11.547 1.8086 42.34 3.4922 56.246 4.0156 0.23828 0.11328 0.47266 0.17969 0.70312 0.17969 0.59375 0 1.543-0.019531 2.7695-0.054687 1.2266 0.035156 2.168 0.054687 2.7695 0.054687 0.22266 0 0.45703-0.066406 0.69922-0.17969 13.902-0.53125 44.699-2.2109 56.25-4.0156 9.7695-1.5273 9.9922-5.3828 9.9922-5.3828l1.0938-5.4766c3.0547-0.11328 5.7617-0.18359 8.043-0.18359h0.375c5.1719 0.019531 5.2266 3.7383 4.3594 6.6445-1.7266 5.7773-2.8047 13.781-2.8047 16.379 0 3 5.207 13.633 6.8047 16.332 0 0 4.4961 12.219 4.5039 12.219 0.80469 2.4531 1.2461 5.0664 1.2461 7.7773 0 3.6445-1.9648 7.3984-1.375 10.957 1.0703 6.4844 6.7617 9.4844 10.27 14.484 3.4297 4.8867 5.3164 10.789 5.3164 16.766 0 5.3008-3.1602 10.648-2.1602 15.848 1.3125 6.8516 5.9883 10.793 10.109 15.934 4.4766 5.5742 7.207 12.5 7.4258 20.039-0.10547-0.003907-0.21094 0-0.3125 0.011718zm54.277 3.5391c-9.6914 14.59-25.672 22.645-37.68 26.887-0.16406-0.035157-0.80469 0.26562-1.6797 0.76172-2.2891-3.3789-5.0312-6.4688-8.1562-9.1719-1.0625-1.9648-1.5391-3.4883-1.7305-4.5625 2.2266-5.1523 3.3438-10.598 3.3438-16.23 0-9.793-3.5703-19.324-9.9414-26.844-0.96875-1.1641-1.9961-2.2812-3.0938-3.3398-0.30078-0.47266-0.61719-0.92969-0.94531-1.3789-2.8555-3.8555-3.7969-6.625-4.0898-8.2461 1.6328-4.2305 2.4648-8.6797 2.4648-13.242 0-11.18-4.9883-21.621-13.75-28.844-0.98828-1.5898-1.5469-2.8711-1.8633-3.8398 0.92969-3.0781 1.3984-6.2734 1.3984-9.5195 0-1.0547-0.050781-2.0977-0.14844-3.1406 0.015625 0 0.027343 0.011719 0.035156 0.019531-0.0625-0.20312-0.23438-0.91797-0.55078-3.0547-0.92188-1.7578 0.29688-2.5117 1.0391-2.5352 4.3125-0.75781 9.9062-1.4453 16.172-1.4453 9.9883 0 21.672 1.7305 32.504 7.625 15.625 8.4883 26.512 24.16 32.359 46.578 5.5898 21.41 3.6758 39.422-5.6875 53.523z"/>
  <path d="m440.24 345.28c0.042969 0.14844 0.039063 0.046875 0 0z"/>
  <path d="m257.91 193.45c15.164 30.133 27.457 54.355 27.457 54.355s2.3047 9.2266-7.6914 10.762c-9.9922 1.5391-52.285 6.1484-57.664 8.457-5.3828 2.3047-9.9922 8.457-1.5391 13.074 2.5195 1.375 14.203 2.4336 29.531 3.2109 3.7812-1.6328 8.6602-2.6484 15.094-2.6484 3.9336 0 8.3555 0.33984 13.512 1.0547 9.3711 1.293 31.254 2.6016 54.941 2.6016 3.7461 0 7.4805-0.035156 11.09-0.10156 16.336-0.28906 32.527-1.1758 46.805-1.9531 11.738-0.63672 21.871-1.1914 28.582-1.1914h0.40625c3.4609 0.011719 5.9414 1.0117 7.6719 2.1992 13.902-0.75391 24.59-1.7969 27.125-3.1758 8.457-4.6172 3.8438-10.766-1.5391-13.074-5.3906-2.2969-47.68-6.9141-57.68-8.4453-9.9922-1.5391-7.6875-10.762-7.6875-10.762s80.738-159.17 83.812-169.16c3.0742-10-3.8438-10.766-3.8438-10.766h-0.60547c6.8359-14.066 12.098-24.965 12.879-26.789 1.5898-3.6992 1.0195-6.4805 0.25781-8.1641-1.5078-3.3594-4.6133-4.543-5.2227-4.7461l-0.64844-0.21484h-0.68359l-122.76-0.003906h-151.46l-0.64844 0.21484c-0.60938 0.20312-3.7109 1.3828-5.2227 4.7461-0.75391 1.6797-1.3203 4.4609 0.26562 8.1641 0.78516 1.8242 6.0469 12.727 12.887 26.797-0.75781 0.12109-6.6484 1.3828-3.7656 10.758 0.42578 1.3789 2.332 5.6016 5.293 11.848-2.9922 0.078125-6.2227 0.26562-9.5469 0.625-20.125 2.2148-34.223 9.8984-40.77 22.227-2.9023 5.4688-4.7695 14.582 2.8164 26.98 7.8516 12.836 24.074 26.219 44.523 36.727 18.297 9.418 37.16 15.109 54.035 16.395zm-61.598-154.02c-2.4062-5.6289 2.418-7.2344 2.418-7.2344h273.54s4.8203 1.6055 2.4141 7.2344c-0.79297 1.8477-6.4492 13.562-13.691 28.449h-250.98c-7.2422-14.887-12.898-26.598-13.695-28.449zm-24.285 93.141c-2.168-3.543-4.3359-8.543-2.3711-12.254 7.0859-13.344 29.848-15.48 44.355-14.973 8.6797 17.781 20.742 41.973 32.477 65.379-1.4453 2.7188-4.332 4.918-10.074 3.5039-0.79297-0.23438-1.5898-0.48047-2.3828-0.73438-0.23438-0.089844-0.46875-0.17969-0.71094-0.27344-1.7773-0.71094-3.2461-1.1875-4.4648-1.4883-24.938-8.9922-48.172-25.008-56.828-39.16z"/>
  <path d="m339.59 327.24c0 6.3945-9.5898 6.3945-9.5898 0s9.5898-6.3945 9.5898 0"/>
  <path d="m345.74 341.62c0 4.9688-7.4531 4.9688-7.4531 0s7.4531-4.9688 7.4531 0"/>
  <path d="m348.27 317.38c0 3.1953-4.7969 3.1953-4.7969 0 0-3.1992 4.7969-3.1992 4.7969 0"/>
  <use x="128.546875" y="636.363281" xlink:href="#v"/>
  <use x="147.226562" y="636.363281" xlink:href="#d"/>
  <use x="159.78125" y="636.363281" xlink:href="#b"/>
  <use x="177.042969" y="636.363281" xlink:href="#g"/>
  <use x="194.21875" y="636.363281" xlink:href="#c"/>
  <use x="206.386719" y="636.363281" xlink:href="#b"/>
  <use x="223.652344" y="636.363281" xlink:href="#f"/>
  <use x="250.734375" y="636.363281" xlink:href="#l"/>
  <use x="268.957031" y="636.363281" xlink:href="#k"/>
  <use x="294.410156" y="636.363281" xlink:href="#e"/>
  <use x="322.488281" y="636.363281" xlink:href="#j"/>
  <use x="331.210938" y="636.363281" xlink:href="#i"/>
  <use x="339.9375" y="636.363281" xlink:href="#i"/>
  <use x="348.664062" y="636.363281" xlink:href="#j"/>
  <use x="357.386719" y="636.363281" xlink:href="#g"/>
  <use x="374.566406" y="636.363281" xlink:href="#h"/>
  <use x="409.949219" y="636.363281" xlink:href="#e"/>
  <use x="438.027344" y="636.363281" xlink:href="#a"/>
  <use x="455.515625" y="636.363281" xlink:href="#a"/>
  <use x="473.003906" y="636.363281" xlink:href="#f"/>
  <use x="491.222656" y="636.363281" xlink:href="#u"/>
  <use x="128.546875" y="661.816406" xlink:href="#t"/>
  <use x="139.621094" y="661.816406" xlink:href="#d"/>
  <use x="152.171875" y="661.816406" xlink:href="#a"/>
  <use x="169.660156" y="661.816406" xlink:href="#h"/>
  <use x="205.046875" y="661.816406" xlink:href="#c"/>
  <use x="217.214844" y="661.816406" xlink:href="#s"/>
  <use x="235.335937" y="661.816406" xlink:href="#b"/>
  <use x="261.460938" y="661.816406" xlink:href="#r"/>
  <use x="282.765625" y="661.816406" xlink:href="#a"/>
  <use x="300.25" y="661.816406" xlink:href="#q"/>
  <use x="318.375" y="661.816406" xlink:href="#p"/>
  <use x="345.355469" y="661.816406" xlink:href="#o"/>
  <use x="364.011719" y="661.816406" xlink:href="#d"/>
  <use x="376.566406" y="661.816406" xlink:href="#a"/>
  <use x="394.054688" y="661.816406" xlink:href="#n"/>
  <use x="402.777344" y="661.816406" xlink:href="#b"/>
  <use x="420.042969" y="661.816406" xlink:href="#m"/>
  <use x="435.132812" y="661.816406" xlink:href="#c"/>
 </g>
</svg>
