<?xml version="1.0" standalone="no"?>
<!DOCTYPE svg PUBLIC "-//W3C//DTD SVG 20010904//EN"
 "http://www.w3.org/TR/2001/REC-SVG-20010904/DTD/svg10.dtd">
<svg version="1.0" xmlns="http://www.w3.org/2000/svg"
 width="1400.000000pt" height="1400.000000pt" viewBox="0 0 1400.000000 1400.000000"
 preserveAspectRatio="xMidYMid meet">
<metadata>
Created by potrace 1.14, written by Peter Selinger 2001-2017
</metadata>
<g transform="translate(0.000000,1400.000000) scale(0.100000,-0.100000)"
fill="#000000" stroke="none">
<path d="M7883 12743 c-10 -16 -29 -37 -42 -48 -49 -39 -71 -62 -64 -68 3 -4
2 -7 -4 -7 -10 0 -67 -49 -166 -144 -34 -33 -63 -59 -64 -58 -7 4 -41 -37 -35
-42 3 -3 1 -6 -5 -6 -9 0 -63 -45 -139 -117 -13 -12 -24 -19 -24 -15 0 4 -10
-4 -21 -18 -11 -14 -18 -18 -14 -10 3 8 -6 2 -20 -15 -15 -16 -24 -24 -20 -16
5 9 -1 8 -19 -4 -14 -9 -23 -21 -20 -26 3 -5 2 -9 -3 -8 -20 3 -34 -2 -28 -11
3 -5 0 -10 -7 -10 -7 0 -24 -10 -38 -23 -14 -12 -50 -40 -80 -62 -30 -22 -57
-42 -60 -45 -3 -3 -17 -11 -32 -19 -15 -8 -25 -18 -22 -22 3 -5 -1 -6 -8 -4
-8 3 -23 -4 -35 -15 -12 -11 -27 -20 -33 -20 -5 0 -10 -5 -10 -11 0 -5 -4 -8
-9 -4 -5 3 -16 -2 -24 -10 -9 -8 -18 -15 -21 -15 -15 0 -94 -58 -88 -65 4 -5
2 -5 -4 -2 -6 3 -22 0 -37 -8 -17 -9 -29 -10 -33 -4 -3 6 -12 8 -20 5 -7 -3
-16 -1 -19 4 -6 9 -37 6 -55 -5 -6 -3 -10 -1 -10 5 0 6 -5 8 -11 5 -5 -4 -52
-8 -102 -9 -51 -1 -99 -6 -106 -11 -10 -5 -12 -4 -7 4 5 8 1 10 -16 7 -23 -5
-254 -16 -401 -20 -57 -1 -80 -5 -87 -16 -8 -13 -10 -12 -10 2 0 11 -5 15 -14
12 -8 -3 -46 -6 -85 -8 -38 -1 -73 -5 -77 -9 -4 -4 -18 3 -31 15 -13 12 -23
19 -23 16 0 -4 -27 19 -142 127 -15 14 -32 25 -37 25 -6 0 -11 5 -11 10 0 14
-72 86 -83 82 -5 -1 -6 2 -2 7 3 6 -3 16 -15 23 -11 7 -20 17 -20 21 0 13 -27
37 -34 30 -3 -4 -6 1 -6 11 0 10 -5 14 -12 10 -6 -4 -8 -3 -4 4 3 6 -5 22 -18
35 -14 14 -22 28 -18 33 4 4 -1 4 -10 1 -11 -4 -15 -2 -12 6 2 7 -11 35 -31
62 -19 28 -35 55 -35 61 0 5 -8 19 -17 30 -10 11 -19 26 -21 34 -5 29 -25 70
-32 70 -4 0 -8 10 -9 23 -1 39 -4 57 -11 57 -10 0 -14 165 -4 182 9 14 -30 9
-54 -7 -24 -17 -152 -196 -152 -213 0 -6 -4 -12 -8 -14 -16 -6 -102 -170 -95
-182 3 -6 2 -8 -2 -3 -8 7 -61 -90 -57 -105 1 -5 -3 -8 -8 -8 -6 0 -10 -5 -10
-11 0 -7 -18 -48 -39 -93 -56 -114 -62 -134 -48 -140 7 -2 5 -5 -5 -5 -13 -1
-18 -15 -24 -58 -9 -72 -11 -123 -4 -123 3 0 5 -34 5 -76 0 -42 3 -78 6 -80 4
-2 5 -13 2 -23 -4 -16 -12 -19 -42 -16 -20 2 -36 4 -36 5 0 11 -503 11 -517 1
-4 -3 -125 -12 -155 -13 -13 0 -23 -4 -23 -9 0 -4 -7 -6 -15 -3 -8 3 -19 2
-26 -2 -7 -4 -28 -8 -48 -10 -59 -5 -76 -11 -73 -25 2 -9 0 -10 -10 -2 -9 8
-36 4 -93 -14 -44 -13 -88 -28 -97 -33 -10 -6 -24 -10 -32 -10 -8 0 -17 -7
-20 -16 -3 -8 -10 -13 -15 -9 -5 3 -39 -9 -76 -26 -50 -24 -65 -36 -60 -48 5
-12 3 -13 -6 -4 -14 14 -52 -7 -110 -59 -10 -10 -22 -18 -26 -17 -4 0 -10 -8
-14 -18 -4 -10 -8 -15 -8 -10 -1 13 -70 -54 -76 -75 -4 -10 -11 -16 -16 -13
-5 4 -9 0 -9 -8 0 -7 -9 -23 -19 -34 -11 -12 -18 -23 -15 -26 2 -2 -2 -10 -11
-17 -8 -7 -15 -18 -15 -24 0 -6 -7 -24 -15 -40 -9 -16 -13 -36 -11 -43 3 -7 1
-13 -5 -13 -6 0 -7 -4 -4 -10 3 -5 2 -10 -3 -10 -5 0 -9 -6 -10 -12 0 -7 -4
-33 -8 -58 -10 -68 -10 -144 -2 -252 7 -85 14 -109 59 -210 123 -276 255 -468
476 -693 161 -164 364 -341 377 -328 3 4 6 -1 6 -10 0 -9 5 -17 11 -17 7 0 20
-10 30 -22 11 -11 19 -18 19 -14 0 4 20 -9 43 -28 24 -20 47 -33 50 -29 4 3 7
1 7 -5 0 -5 17 -21 38 -33 20 -13 46 -31 56 -41 11 -10 26 -18 33 -18 7 0 13
-4 13 -10 0 -5 7 -10 15 -10 8 0 15 -4 15 -9 0 -5 8 -11 18 -14 16 -5 62 -32
87 -50 42 -31 84 -54 89 -49 3 3 6 0 6 -6 0 -7 7 -12 15 -12 8 0 15 -4 15 -10
0 -5 9 -10 20 -10 11 0 20 -4 20 -10 0 -5 5 -10 11 -10 6 0 23 -9 39 -20 15
-11 30 -17 34 -13 3 3 6 2 6 -4 0 -10 36 -26 53 -24 4 1 7 -3 7 -8 0 -8 37
-24 53 -22 4 1 7 -4 7 -10 0 -5 5 -7 10 -4 6 3 10 2 10 -4 0 -5 10 -13 22 -17
13 -4 50 -19 83 -34 33 -15 83 -38 110 -50 28 -12 70 -31 95 -42 25 -11 70
-31 100 -45 30 -14 68 -41 85 -61 16 -20 47 -53 68 -74 20 -21 37 -41 37 -44
0 -4 8 -14 18 -23 16 -14 100 -152 102 -166 0 -3 0 -12 0 -21 0 -8 4 -13 9
-10 5 4 7 -3 4 -14 -3 -11 -1 -20 5 -20 6 0 8 -9 5 -20 -3 -12 0 -20 6 -20 7
0 10 -4 6 -9 -3 -5 -1 -12 5 -16 6 -4 8 -10 5 -15 -3 -5 1 -25 9 -44 8 -19 12
-37 8 -40 -3 -3 1 -6 8 -6 7 0 11 -3 7 -6 -7 -7 51 -125 67 -136 7 -5 7 -8 1
-8 -5 0 -3 -5 5 -10 8 -5 15 -13 15 -17 1 -17 36 -73 45 -73 6 0 10 -5 10 -10
0 -14 91 -106 102 -103 4 2 8 -3 8 -11 0 -8 7 -16 15 -20 18 -6 11 -29 -19
-60 -26 -27 -111 -86 -124 -86 -6 0 -12 -3 -14 -7 -1 -5 -25 -18 -51 -31 -26
-12 -46 -26 -43 -31 3 -4 -5 -7 -18 -6 -14 2 -33 -4 -43 -13 -10 -10 -25 -17
-33 -17 -8 0 -14 -6 -12 -13 1 -8 -2 -11 -7 -7 -11 6 -144 -53 -149 -67 -2 -4
-9 -8 -16 -8 -22 0 -106 -47 -98 -55 4 -5 1 -5 -5 -1 -7 4 -23 1 -35 -6 -13
-6 -30 -13 -38 -14 -8 -2 -16 -8 -18 -14 -2 -5 -7 -8 -12 -5 -4 3 -21 -2 -36
-10 -16 -8 -35 -15 -41 -15 -7 0 -13 -4 -13 -9 0 -6 -8 -9 -17 -9 -10 1 -38
-8 -62 -20 -25 -12 -51 -22 -58 -22 -7 0 -13 -4 -13 -8 0 -5 -6 -9 -14 -9 -26
0 -76 -25 -69 -36 3 -6 1 -7 -5 -3 -15 9 -98 -36 -141 -75 -18 -16 -34 -29
-37 -29 -2 0 -13 -9 -24 -20 -11 -11 -17 -20 -13 -20 3 0 -4 -9 -16 -19 -13
-11 -20 -25 -16 -30 3 -6 1 -11 -4 -11 -18 0 -6 -40 21 -68 28 -30 126 -82
155 -82 11 -1 5 -6 -15 -15 -18 -8 -35 -21 -38 -30 -3 -8 -11 -15 -16 -15 -6
0 -31 -20 -55 -44 -24 -25 -47 -46 -51 -48 -12 -5 -71 -85 -74 -99 -2 -8 -5
-16 -8 -19 -3 -3 -10 -20 -17 -38 -17 -47 -8 -113 18 -134 12 -10 18 -18 14
-18 -11 0 18 -26 60 -52 36 -23 99 -48 133 -54 8 -1 30 -10 50 -20 20 -10 42
-19 47 -21 6 -1 38 -9 73 -18 89 -21 140 -47 189 -93 41 -39 89 -125 85 -149
-2 -7 1 -13 6 -13 5 0 7 -11 4 -25 -4 -21 -1 -24 14 -19 18 5 18 5 1 -6 -9 -6
-15 -16 -11 -21 5 -8 8 -114 4 -129 -1 -3 -2 -40 -3 -82 -1 -42 -5 -80 -9 -84
-12 -12 -9 -26 4 -18 7 5 8 3 2 -7 -10 -17 -13 -31 -16 -91 -2 -27 -6 -48 -11
-48 -4 0 -7 -6 -5 -12 1 -7 -2 -38 -7 -68 -4 -30 -9 -58 -9 -62 -1 -3 -4 -10
-8 -14 -4 -4 -2 -14 5 -22 9 -13 9 -14 0 -8 -7 4 -13 4 -14 -1 0 -4 -3 -24 -6
-43 -2 -19 -6 -46 -6 -60 -1 -14 -4 -27 -7 -30 -10 -10 -30 -101 -25 -111 4
-5 1 -9 -5 -9 -7 0 -10 -6 -7 -12 2 -7 -3 -28 -10 -47 -11 -25 -12 -36 -3 -41
8 -5 7 -9 -4 -13 -9 -4 -16 -14 -16 -24 0 -10 -7 -38 -16 -62 -8 -24 -13 -50
-10 -57 3 -7 1 -14 -5 -16 -10 -3 -21 -38 -23 -75 0 -11 -5 -19 -10 -15 -5 3
-7 -2 -3 -11 3 -10 2 -17 -3 -17 -6 0 -10 -9 -10 -20 0 -11 -5 -20 -11 -20 -5
0 -8 -4 -4 -10 3 -5 1 -17 -5 -27 -12 -23 -52 -134 -53 -150 0 -7 -4 -13 -9
-13 -5 0 -6 -5 -2 -11 3 -6 1 -14 -5 -18 -6 -4 -13 -21 -14 -38 -1 -17 -6 -31
-12 -30 -5 1 -9 -7 -10 -18 0 -11 -9 -34 -18 -52 -16 -30 -24 -60 -26 -91 -1
-7 -6 -10 -13 -6 -8 5 -9 2 -5 -9 3 -9 2 -19 -4 -22 -5 -4 -7 -11 -4 -16 4 -5
1 -9 -5 -9 -6 0 -9 -4 -5 -9 3 -5 1 -12 -4 -16 -5 -3 -8 -14 -6 -25 2 -11 0
-20 -5 -20 -10 0 -30 -56 -23 -64 4 -3 1 -6 -5 -6 -7 0 -11 -3 -10 -7 1 -8
-13 -48 -32 -88 -28 -62 -53 -121 -54 -132 -1 -7 -8 -19 -14 -25 -7 -7 -12
-20 -12 -30 0 -10 -5 -18 -11 -18 -5 0 -7 -4 -4 -10 3 -5 1 -10 -6 -10 -7 0
-10 -3 -6 -6 3 -4 -4 -25 -15 -48 -12 -22 -21 -44 -20 -48 1 -5 -3 -8 -10 -8
-6 0 -8 -3 -5 -6 4 -4 -3 -20 -14 -35 -11 -16 -17 -29 -13 -29 3 0 1 -7 -6
-15 -7 -8 -9 -15 -4 -15 5 0 0 -7 -10 -15 -11 -8 -16 -15 -12 -15 5 0 3 -7 -4
-15 -7 -8 -9 -15 -5 -15 5 0 1 -8 -8 -17 -8 -10 -16 -21 -16 -26 0 -4 -7 -20
-15 -36 -9 -16 -12 -31 -9 -35 4 -3 2 -6 -3 -6 -10 0 -51 -89 -46 -102 1 -5
-3 -8 -9 -8 -5 0 -7 -5 -3 -11 3 -6 3 -14 -2 -18 -16 -11 -35 -52 -29 -61 4
-6 1 -10 -5 -10 -7 0 -10 -7 -6 -15 3 -8 2 -14 -2 -12 -4 1 -8 -1 -10 -5 -2
-4 -9 -23 -17 -42 -8 -18 -11 -37 -7 -41 4 -5 2 -5 -4 -2 -10 6 -41 -59 -36
-76 1 -4 -3 -7 -9 -7 -5 0 -7 -4 -4 -10 3 -5 3 -10 -2 -10 -9 0 -34 -64 -36
-92 -1 -9 -5 -14 -9 -12 -4 3 -8 -2 -8 -11 0 -9 -7 -30 -16 -47 -12 -22 -12
-28 -2 -22 7 4 5 -2 -4 -13 -10 -11 -18 -26 -18 -34 0 -8 -5 -20 -12 -27 -9
-9 -9 -12 2 -12 12 0 12 -2 2 -8 -7 -5 -15 -19 -18 -33 -8 -38 -12 -54 -14
-56 -2 -2 -4 -7 -5 -13 -1 -5 -3 -11 -5 -12 -4 -6 -11 -44 -14 -73 -2 -17 -9
-41 -15 -54 -7 -12 -10 -25 -8 -28 3 -2 -1 -19 -8 -37 -11 -26 -11 -36 -2 -46
9 -10 9 -11 0 -6 -8 4 -13 2 -14 -6 0 -7 -2 -22 -4 -33 -15 -84 -18 -106 -19
-150 -1 -27 -5 -53 -11 -57 -6 -5 -5 -8 3 -8 7 0 10 -4 7 -10 -13 -21 -13 -49
1 -54 8 -3 11 -12 8 -21 -8 -20 49 -106 111 -168 59 -60 192 -147 321 -212 54
-27 101 -52 104 -55 6 -6 62 -33 71 -34 3 -1 25 -11 50 -22 70 -34 130 -59
169 -69 3 -1 19 -8 35 -15 17 -7 35 -12 42 -11 6 1 14 -3 18 -9 5 -8 11 -7 21
1 12 10 15 10 12 -2 -2 -8 7 -15 20 -17 12 -2 22 -7 22 -12 0 -4 11 -7 25 -5
14 1 25 -2 25 -7 0 -5 4 -6 10 -3 6 3 10 1 10 -5 0 -6 4 -9 8 -6 5 3 21 -2 37
-10 15 -8 43 -15 61 -17 19 -1 34 -6 34 -11 0 -4 7 -6 15 -2 8 3 15 1 15 -5 0
-6 7 -9 15 -6 8 4 17 2 20 -4 4 -5 11 -7 16 -4 5 4 9 2 9 -2 0 -5 10 -10 23
-11 48 -4 97 -15 97 -21 0 -4 10 -8 23 -8 49 -4 77 -8 77 -13 0 -6 26 -11 73
-13 15 -1 27 -5 27 -9 0 -5 5 -8 11 -8 5 0 7 6 3 13 -6 9 -5 9 7 0 8 -6 27
-14 42 -17 15 -2 31 -7 37 -11 5 -3 10 0 10 7 0 10 2 10 9 -1 5 -7 28 -14 55
-15 25 0 46 -4 46 -7 0 -3 17 -5 38 -5 20 1 43 -2 50 -7 7 -6 15 -7 19 -4 3 4
12 2 20 -4 7 -6 13 -9 13 -6 0 3 15 1 34 -3 22 -5 39 -3 47 4 9 8 10 8 6 0 -9
-16 26 -24 48 -11 10 5 15 5 12 0 -3 -5 16 -10 41 -12 54 -3 105 -8 112 -11
15 -6 36 -4 42 5 5 6 8 5 8 -4 0 -11 3 -11 15 -1 8 7 15 8 15 3 0 -10 64 -16
178 -17 34 0 62 -3 62 -6 0 -3 35 -5 78 -5 42 0 89 -3 105 -7 15 -4 27 -2 27
3 0 6 8 5 20 -1 15 -8 20 -8 20 2 0 9 3 9 10 -2 9 -13 10 -13 10 0 0 9 3 11 8
5 4 -5 47 -10 95 -10 66 0 91 4 98 15 9 13 10 12 6 -2 -5 -14 1 -16 41 -15 26
1 50 6 54 12 5 6 8 6 8 -2 0 -14 39 -14 59 1 10 7 13 7 9 1 -7 -12 207 -13
218 -2 4 3 15 2 25 -4 11 -5 19 -6 19 -2 0 10 63 9 78 -1 7 -4 12 -4 12 1 0 4
28 7 62 6 39 -1 66 3 70 10 5 7 8 8 8 2 0 -12 70 -12 88 -1 6 3 13 2 17 -4 4
-6 10 -8 15 -5 4 3 77 8 162 11 84 3 173 7 198 9 126 8 305 35 293 44 -4 3 -9
12 -11 20 -3 12 0 12 12 2 8 -7 20 -10 26 -6 6 4 25 8 43 10 35 4 68 11 137
27 25 5 59 12 75 15 17 3 36 10 44 16 12 10 13 9 6 -2 -5 -10 -4 -12 3 -7 7 4
20 9 29 11 65 15 111 28 128 35 11 5 34 11 50 14 17 4 37 8 45 10 8 3 19 5 23
5 5 1 6 4 4 9 -3 4 7 8 21 8 15 1 36 4 47 7 11 3 40 10 65 16 41 9 154 48 205
70 25 11 88 35 95 37 7 1 35 12 89 35 24 11 50 19 57 19 8 0 14 5 14 10 0 6 3
9 8 8 4 -1 17 3 28 10 12 6 24 8 28 5 3 -3 6 -1 6 5 0 7 7 12 15 12 8 0 15 5
15 12 0 6 3 9 6 5 4 -3 21 1 38 10 17 10 34 16 39 15 4 -1 7 2 7 7 0 8 37 24
53 22 4 -1 7 6 7 14 0 8 3 14 8 13 7 -3 20 5 132 78 69 45 180 145 180 162 0
5 7 13 16 16 9 4 14 9 11 12 -3 3 3 14 14 25 10 10 19 26 19 34 0 8 5 15 11
15 6 0 8 7 5 16 -3 8 -2 13 3 10 6 -4 28 27 36 54 1 3 4 12 8 20 37 91 46 195
25 310 -20 118 -21 118 54 122 15 0 25 4 23 8 -2 3 9 4 26 2 16 -2 29 0 29 6
0 6 8 9 18 7 9 -1 30 4 45 12 16 8 38 16 49 18 31 6 78 29 78 38 0 4 6 7 13 5
18 -4 108 43 102 52 -3 5 5 6 17 2 14 -3 19 -1 14 6 -4 7 4 14 21 18 15 3 34
13 41 22 6 9 12 12 12 8 0 -5 12 0 28 9 44 28 82 67 75 78 -3 6 -1 7 6 3 6 -4
8 -13 4 -19 -4 -7 0 -6 10 2 9 7 14 18 10 24 -3 5 -1 7 4 4 6 -4 25 6 42 22
17 16 31 27 31 24 0 -2 11 7 23 21 13 14 27 23 30 20 3 -3 8 4 12 15 3 12 10
19 15 16 11 -7 32 30 22 39 -3 4 1 4 10 1 17 -7 43 27 30 39 -3 4 1 4 9 1 16
-6 56 40 51 58 -1 4 2 6 7 5 11 -4 61 49 53 56 -3 3 -1 6 5 6 6 0 30 28 54 62
23 35 48 66 53 70 7 5 7 8 1 8 -5 0 -4 4 3 9 7 4 14 17 15 29 0 11 6 20 12 19
5 -1 9 4 7 11 -1 6 2 12 7 12 5 0 11 8 14 17 4 10 14 29 24 43 14 18 14 22 3
16 -13 -7 -13 -6 0 6 20 18 53 78 46 85 -3 3 2 12 10 20 8 8 12 19 9 24 -4 5
-2 9 3 9 5 0 13 10 17 22 4 13 9 30 12 38 3 8 6 25 7 37 0 11 4 19 7 17 6 -4
23 53 20 69 0 4 4 7 11 7 6 0 9 3 6 6 -3 3 1 29 8 57 8 29 17 66 19 82 3 17 7
41 10 55 11 53 19 160 19 260 -1 253 -43 465 -139 695 -57 137 -139 285 -158
285 -6 0 -7 3 -4 6 8 9 -17 45 -111 159 -160 194 -362 350 -616 474 -67 33
-131 62 -142 64 -21 4 -49 14 -79 28 -22 10 -120 39 -145 43 -9 1 -20 5 -26 8
-9 6 -75 18 -116 21 -10 1 -18 4 -18 7 0 3 -12 6 -27 7 -16 0 -48 4 -73 8 -63
9 -400 15 -400 7 0 -4 -26 -8 -58 -9 -88 -2 -122 -5 -122 -12 0 -4 -12 -6 -27
-6 -16 1 -32 -1 -38 -4 -5 -3 -14 -6 -20 -6 -45 -3 -94 -18 -88 -28 4 -7 -1
-6 -10 2 -11 9 -17 10 -17 2 0 -6 -3 -10 -7 -9 -16 4 -73 -14 -73 -22 0 -5 -7
-7 -15 -4 -8 4 -15 1 -15 -5 0 -6 -7 -8 -15 -5 -10 4 -12 10 -6 18 5 6 8 35 7
64 0 30 1 55 4 57 3 2 5 26 5 54 0 28 3 51 8 51 5 0 4 7 -3 15 -7 8 -8 15 -3
15 8 0 12 16 16 75 1 17 5 33 9 36 5 3 9 18 11 35 2 16 7 38 11 49 28 76 35
99 30 106 -3 5 0 9 6 9 6 0 9 4 5 9 -3 5 0 13 6 16 5 4 8 13 5 20 -3 8 -1 15
4 17 5 2 10 14 12 28 2 14 7 31 12 39 5 8 3 16 -5 22 -11 7 -10 9 5 9 11 0 17
2 14 6 -3 3 0 24 6 47 7 23 11 51 10 62 -1 11 -3 36 -5 55 -2 19 -6 40 -9 45
-4 6 -10 18 -13 27 -4 13 -2 15 10 11 12 -5 14 -3 8 7 -5 8 -4 11 3 6 11 -7
92 30 104 48 4 6 8 7 8 2 0 -5 7 -3 15 4 8 7 15 9 15 4 0 -5 7 2 16 14 8 12
19 20 24 17 5 -3 14 0 22 7 7 7 31 25 53 40 57 38 105 82 105 96 0 7 4 12 8
12 17 0 32 52 32 107 0 55 -2 58 -50 105 -28 27 -55 46 -60 43 -6 -3 -10 -1
-10 4 0 6 -3 10 -7 9 -5 -1 -33 10 -63 24 -187 87 -416 177 -760 300 -194 69
-369 168 -385 219 -6 17 28 79 48 87 4 2 5 8 1 13 -3 5 -1 9 4 9 9 0 33 44 38
69 1 8 6 17 11 20 18 13 54 92 47 103 -4 7 -3 8 4 4 7 -4 13 -2 13 3 3 20 5
26 16 46 6 11 11 23 12 28 1 4 1 8 2 10 4 13 10 46 12 64 1 11 6 19 11 15 5
-3 7 4 4 16 -3 12 -1 23 4 24 6 2 11 18 12 35 0 17 4 29 9 26 6 -4 9 15 10 84
1 12 4 20 8 17 4 -2 7 4 7 13 -1 17 2 30 17 93 3 14 8 36 11 50 3 14 7 34 10
45 9 32 54 124 65 130 5 4 7 11 4 16 -4 5 -1 9 5 9 7 0 9 7 6 16 -3 8 -2 13 3
10 9 -6 47 44 43 57 -1 4 2 7 7 7 8 0 24 37 22 53 -1 4 4 7 10 7 6 0 9 6 6 14
-3 8 -2 16 4 18 5 2 12 16 15 32 3 16 7 33 10 38 7 10 17 57 18 81 0 9 3 17 6
17 3 0 6 8 7 18 1 23 13 74 19 84 6 9 13 40 19 80 2 15 6 32 10 38 3 5 1 10
-6 10 -8 0 -9 4 0 13 8 10 7 17 -2 27 -9 10 -9 11 1 6 7 -5 12 -1 12 9 0 10
-5 13 -12 9 -6 -4 -4 3 5 16 12 18 14 27 5 37 -6 7 -7 13 -2 13 5 0 9 27 9 60
0 33 3 60 6 60 4 0 7 10 7 23 2 47 34 122 57 130 8 4 15 13 15 22 0 8 5 15 11
15 5 0 7 5 4 10 -4 6 -3 9 2 8 5 -2 21 9 36 25 15 15 25 27 21 27 -3 0 8 12
25 27 17 15 31 33 31 39 0 6 9 19 19 28 11 10 23 31 26 47 4 16 10 29 15 29 4
0 11 10 15 23 4 12 8 24 9 27 17 39 26 64 26 74 0 7 3 16 8 20 4 4 7 11 7 14
1 4 4 16 8 27 4 11 9 34 11 50 15 98 20 115 28 115 5 0 6 5 3 10 -3 6 -1 10 5
10 6 0 9 4 6 9 -3 5 1 12 10 15 9 4 14 13 10 21 -3 8 0 15 7 15 7 0 20 9 30
20 9 11 14 20 11 20 -4 0 4 9 17 20 13 10 21 19 17 20 -4 0 3 10 15 23 12 13
28 32 35 43 7 10 16 24 20 29 7 11 51 41 87 61 48 26 65 40 61 50 -2 6 3 11
11 10 19 -1 101 96 143 169 50 87 66 209 39 293 -12 38 -72 154 -92 179 -83
100 -211 175 -415 242 -169 55 -319 89 -434 98 -63 5 -78 3 -78 -8 0 -8 -16
13 -35 46 -19 33 -39 59 -45 58 -5 -2 -7 4 -4 12 4 8 1 15 -5 15 -6 0 -11 5
-11 10 0 20 -43 69 -54 63 -6 -3 -8 -3 -4 2 4 4 -12 33 -36 64 -24 31 -52 70
-61 88 -10 18 -22 30 -27 27 -5 -3 -8 -2 -7 3 3 17 -1 32 -13 45 -7 8 -21 27
-30 43 -10 17 -22 29 -28 27 -7 -1 -9 2 -5 8 3 5 1 10 -4 10 -6 0 -10 3 -9 8
3 10 -32 63 -56 85 -10 9 -15 17 -10 17 5 0 0 7 -10 15 -11 8 -17 15 -13 15 7
0 -15 30 -50 67 -13 13 -23 26 -23 28 0 5 -7 14 -57 73 -13 15 -23 31 -23 35
0 5 -4 5 -10 2 -5 -3 -7 0 -4 8 3 8 -2 20 -11 27 -8 7 -15 19 -15 26 0 8 -5
14 -11 14 -5 0 -7 5 -4 10 3 6 0 13 -8 16 -8 3 -13 16 -11 30 1 15 -4 28 -12
31 -8 3 -14 11 -14 19 0 12 -29 34 -44 34 -3 0 -13 -12 -23 -27z m-2961 -90
c-7 -15 -9 -108 -2 -108 1 0 3 -8 5 -17 9 -46 38 -118 47 -118 6 0 8 -3 5 -7
-14 -13 110 -206 126 -196 6 4 7 1 3 -6 -5 -7 -1 -20 8 -29 57 -61 75 -82 70
-82 -16 0 259 -263 360 -345 27 -22 63 -52 80 -66 46 -38 262 -187 291 -201
14 -6 25 -14 25 -18 0 -4 8 -10 18 -14 21 -7 76 -39 96 -56 9 -6 21 -8 28 -4
7 4 10 4 6 -1 -10 -10 19 -28 195 -118 212 -110 466 -216 612 -258 136 -38
222 -59 265 -65 70 -9 54 -18 -33 -17 -39 1 -78 -4 -84 -9 -9 -7 -13 -7 -13 1
0 12 -27 10 -47 -2 -7 -5 -13 -4 -13 1 0 4 -19 6 -42 4 -24 -2 -119 -5 -213
-5 -106 -1 -173 -5 -177 -12 -5 -7 -8 -7 -8 0 0 13 -409 14 -429 1 -9 -6 -12
-5 -8 1 4 6 -35 10 -101 10 -59 1 -117 4 -129 7 -14 3 -23 0 -23 -7 0 -8 -3
-9 -8 -1 -4 6 -39 10 -82 10 -41 -1 -92 2 -112 5 -25 4 -38 2 -38 -5 0 -8 -3
-8 -8 0 -4 5 -38 11 -77 11 -38 1 -78 4 -87 8 -12 5 -18 2 -18 -6 0 -9 -3 -10
-8 -4 -4 6 -18 11 -32 11 -44 3 -164 14 -197 19 -22 3 -33 0 -33 -8 0 -9 -2
-9 -8 -1 -4 7 -36 14 -72 18 -36 3 -90 10 -120 15 -30 5 -58 7 -62 5 -4 -2
-10 1 -14 7 -4 8 -9 7 -15 -2 -6 -10 -9 -11 -9 -1 0 6 -11 12 -26 12 -19 0
-28 7 -35 30 -6 17 -15 30 -21 30 -5 0 -7 4 -4 9 3 5 -9 38 -28 74 -18 37 -31
69 -28 72 3 3 0 5 -6 5 -7 0 -11 3 -10 8 1 4 -4 23 -11 42 -8 19 -15 44 -17
55 -3 11 -7 27 -11 35 -3 8 -8 24 -10 35 -2 10 -9 23 -16 27 -9 6 -9 8 1 8 8
0 10 5 6 12 -7 11 -12 41 -16 103 -1 17 -7 33 -13 37 -6 5 -5 8 3 8 7 0 10 5
6 12 -6 10 -13 83 -15 166 -1 17 -6 32 -13 32 -6 0 -4 5 4 10 12 8 13 13 2 30
-7 11 -8 20 -3 20 5 0 8 20 7 45 -1 25 1 45 5 45 4 0 6 13 5 30 -1 16 0 27 2
25 3 -2 27 51 54 118 27 67 55 136 62 152 8 17 31 68 51 115 21 47 42 91 47
98 6 6 7 12 2 12 -5 0 -4 4 1 8 6 4 30 40 54 80 24 39 47 72 52 72 6 0 6 -7 1
-17z m2998 -33 c7 -22 16 -40 20 -40 4 0 7 -6 7 -13 0 -18 51 -97 63 -97 6 0
9 -3 8 -7 -4 -15 34 -63 45 -56 5 3 7 1 3 -5 -3 -6 -1 -16 6 -24 7 -7 27 -33
43 -58 31 -46 88 -126 105 -147 6 -7 10 -17 10 -22 0 -6 6 -14 13 -18 6 -4 20
-21 29 -38 10 -16 22 -29 28 -27 5 1 9 -1 9 -5 -4 -26 7 -46 61 -103 33 -36
64 -64 69 -63 5 1 8 -3 7 -10 -1 -12 40 -71 76 -108 9 -10 15 -19 12 -21 -2
-2 12 -29 31 -58 19 -30 38 -62 41 -72 3 -10 10 -18 15 -18 5 0 9 -7 9 -15 0
-8 4 -15 8 -15 4 0 14 -16 21 -35 7 -19 16 -35 20 -35 3 0 7 -10 8 -22 1 -11
6 -24 11 -27 10 -7 39 -117 48 -181 12 -84 0 -215 -18 -204 -5 3 -17 2 -26 -2
-18 -8 -36 -11 -78 -13 -17 -1 -23 -5 -18 -13 5 -10 4 -10 -6 -1 -8 7 -22 8
-42 2 -17 -4 -33 -8 -37 -7 -3 0 -8 -1 -11 -2 -11 -4 -66 -11 -93 -10 -20 0
-26 -3 -21 -12 6 -10 5 -11 -8 -1 -8 7 -18 10 -21 7 -4 -4 -30 -9 -59 -11 -50
-4 -93 -10 -93 -13 0 -1 -27 -3 -60 -6 -33 -2 -80 -6 -105 -9 -25 -2 -78 -7
-119 -10 -41 -3 -81 -11 -89 -18 -12 -9 -14 -9 -8 0 5 9 -3 12 -31 9 -21 -3
-38 -5 -38 -5 0 -2 -176 -11 -227 -12 -29 -1 -48 -6 -48 -12 0 -8 -3 -8 -8 -2
-8 11 -42 16 -42 6 0 -18 -195 7 -349 45 -112 28 -310 93 -426 140 -103 42
-529 257 -545 275 -11 13 -84 58 -89 55 -3 -1 -16 8 -29 20 l-23 22 35 -8 c43
-9 141 -3 167 11 11 5 19 7 19 4 0 -3 16 1 35 9 20 9 38 15 40 16 38 5 65 14
65 22 0 5 5 6 10 3 6 -3 10 -2 10 2 0 5 10 10 22 10 13 1 24 7 26 13 2 5 7 8
12 5 12 -8 285 118 296 137 3 5 10 6 15 3 5 -4 9 -2 9 3 0 5 8 12 18 15 9 3
40 20 67 36 28 17 57 34 65 38 8 3 17 9 20 12 3 3 19 13 35 22 17 9 29 21 28
27 -2 6 4 9 12 6 8 -4 15 -2 15 3 0 5 6 10 13 10 6 0 40 19 75 43 46 31 62 47
57 59 -5 12 -3 13 6 4 9 -9 17 -8 35 4 13 8 21 20 17 26 -3 5 -1 7 4 4 6 -4
23 5 37 18 15 14 31 25 37 25 5 0 9 4 9 9 0 4 25 25 55 45 31 20 58 43 62 51
3 8 8 13 12 11 11 -7 111 91 103 99 -4 5 -2 5 4 2 6 -3 24 10 40 30 16 21 39
46 51 57 12 10 19 24 16 30 -3 6 -3 8 1 4 11 -9 106 83 99 96 -3 6 -2 8 2 3
11 -10 46 23 38 36 -3 5 -2 7 4 4 5 -3 31 19 57 49 27 30 54 54 60 54 7 0 19
-18 26 -40z m-1914 -918 c-6 -9 111 -8 121 1 3 4 12 2 20 -4 7 -6 13 -8 13 -3
0 5 81 10 180 12 99 1 180 0 180 -3 0 -5 -81 -43 -94 -43 -5 0 -12 -5 -16 -12
-4 -6 -13 -12 -21 -14 -45 -7 -187 -71 -182 -80 4 -6 0 -5 -9 1 -8 7 -18 9
-22 5 -4 -4 -12 -8 -17 -8 -5 -1 -11 -3 -14 -4 -3 -1 -9 -4 -15 -5 -5 -1 -11
-3 -12 -5 -7 -5 -59 -10 -112 -10 -54 0 -57 -1 -45 -17 8 -9 -7 -2 -34 16 -26
17 -52 29 -59 25 -6 -4 -8 -3 -4 4 8 13 -33 44 -47 35 -6 -3 -7 -2 -4 4 4 5
-5 16 -18 23 -14 7 -25 17 -25 22 0 4 -6 8 -13 8 -7 0 -17 8 -24 19 -13 20
-18 19 179 24 42 1 80 5 84 10 10 9 16 9 10 -1z m2976 -146 c9 -1 23 -7 31
-14 7 -7 17 -9 20 -6 3 3 12 2 19 -2 7 -5 16 -9 21 -10 4 -1 8 -2 10 -4 1 -1
14 -4 29 -6 15 -3 44 -12 65 -21 21 -9 41 -16 46 -15 4 1 7 -3 7 -9 0 -6 6 -9
14 -6 8 3 20 -1 27 -9 6 -8 14 -12 16 -10 3 3 19 -3 36 -13 18 -10 40 -17 50
-15 9 1 17 -1 17 -6 0 -4 22 -17 49 -29 27 -11 51 -28 55 -37 4 -9 12 -14 22
-10 8 3 13 2 10 -3 -3 -4 5 -19 17 -32 66 -71 87 -170 52 -240 -21 -40 -103
-121 -160 -158 -22 -14 -42 -29 -45 -32 -13 -17 -120 -72 -227 -117 -99 -42
-137 -55 -193 -67 -3 -1 -55 -13 -116 -28 -60 -15 -130 -29 -155 -31 -38 -4
-299 -37 -399 -51 -79 -11 -147 -18 -187 -19 -22 0 -39 -4 -37 -8 3 -4 -4 -6
-13 -6 -10 1 -40 -2 -68 -6 -27 -4 -63 -9 -80 -11 -16 -2 -70 -11 -118 -20
-49 -8 -93 -13 -98 -10 -5 4 -9 1 -9 -5 0 -6 -6 -10 -12 -9 -7 2 -26 0 -43 -4
-16 -3 -50 -9 -75 -11 -54 -6 -175 -31 -175 -36 0 -1 -9 -3 -19 -5 -110 -21
-76 -34 105 -42 300 -14 929 -1 1139 23 30 3 66 7 80 7 14 1 28 7 32 12 5 6 8
6 8 -2 0 -9 8 -9 28 -3 15 5 45 12 67 14 22 3 41 5 43 7 1 1 10 2 20 3 54 7
112 19 112 25 0 3 14 7 31 7 17 1 34 5 38 10 3 5 13 10 21 12 8 2 53 19 100
37 l85 34 -35 -30 c-19 -17 -34 -35 -32 -40 1 -6 -2 -8 -7 -5 -13 8 -83 -53
-75 -65 3 -5 1 -9 -5 -9 -13 0 -38 -48 -45 -84 -3 -16 0 -26 7 -26 8 0 7 -3
-2 -9 -8 -5 -14 -27 -15 -49 -1 -22 -4 -38 -8 -35 -5 2 -8 -3 -8 -11 0 -8 -5
-27 -12 -43 -6 -15 -12 -31 -13 -35 -2 -5 -3 -9 -5 -10 -1 -2 -3 -11 -5 -22
-2 -10 -8 -23 -14 -29 -6 -6 -11 -19 -11 -29 0 -10 -5 -18 -11 -18 -6 0 -8 -7
-5 -16 3 -8 2 -12 -4 -9 -6 3 -10 -1 -10 -9 0 -9 -5 -16 -12 -16 -6 0 -9 -3
-6 -6 3 -3 -5 -16 -19 -30 -13 -13 -21 -29 -17 -36 4 -7 3 -8 -4 -4 -19 12
-35 -4 -21 -20 10 -12 9 -13 -4 -8 -18 7 -75 -52 -69 -71 2 -5 0 -7 -4 -3 -7
8 -14 1 -64 -62 -23 -29 -98 -60 -180 -76 -13 -3 -30 -10 -36 -15 -8 -7 -14
-6 -19 1 -3 5 -1 10 5 10 6 0 8 5 4 12 -4 6 -3 8 3 5 10 -6 16 2 25 31 1 4 17
22 35 41 19 19 31 41 28 48 -2 8 -1 12 3 9 10 -6 29 15 62 69 13 22 32 49 42
59 10 11 18 24 18 29 0 5 9 20 20 34 11 14 17 29 14 34 -3 5 -1 9 5 9 5 0 12
14 16 30 4 17 11 30 16 30 6 0 5 8 -1 20 -6 11 -7 20 -2 20 11 0 9 40 -2 59
-6 9 -5 12 2 7 12 -7 1 33 -31 106 -30 70 -79 76 -84 10 -4 -56 -13 -95 -24
-108 -6 -8 -8 -14 -5 -14 4 0 0 -7 -9 -16 -12 -13 -13 -19 -4 -30 10 -12 9
-13 -5 -8 -10 4 -18 0 -23 -12 -4 -11 -12 -24 -17 -30 -6 -6 -20 -23 -31 -39
-11 -15 -30 -38 -42 -51 -13 -13 -23 -28 -23 -33 0 -6 -9 -15 -21 -21 -11 -7
-18 -14 -15 -18 3 -3 -6 -14 -21 -24 -16 -10 -25 -18 -20 -18 8 0 -102 -133
-115 -138 -4 -2 -8 -10 -8 -18 0 -8 -5 -14 -12 -14 -6 0 -9 -3 -6 -6 3 -3 -7
-19 -23 -36 -15 -17 -26 -35 -23 -40 3 -4 0 -8 -5 -8 -6 0 -11 -7 -11 -15 0
-8 -6 -15 -12 -16 -7 0 -26 -2 -43 -4 -31 -2 -145 -12 -245 -20 -30 -3 -82 -7
-115 -10 -33 -3 -94 -8 -135 -11 -133 -10 -154 -12 -230 -18 -41 -4 -100 -9
-130 -13 -87 -10 -92 -11 -150 -17 -180 -20 -396 -49 -402 -55 -4 -3 7 -5 25
-4 18 1 75 4 127 7 52 4 136 11 185 16 50 5 119 12 155 16 36 3 83 7 105 9 22
2 85 7 140 11 92 6 130 10 130 14 0 1 38 3 85 5 47 2 117 6 155 9 39 3 114 7
168 11 53 3 107 9 120 14 35 13 48 4 36 -26 -5 -14 -7 -28 -4 -31 2 -3 -1 -12
-8 -20 -10 -13 -9 -14 3 -7 12 7 13 6 4 -6 -6 -8 -12 -36 -13 -62 -2 -38 1
-47 11 -41 10 6 10 5 2 -7 -13 -15 -7 -79 7 -79 5 0 6 -7 3 -15 -4 -8 -2 -15
3 -15 5 0 10 -6 11 -12 1 -19 7 -42 13 -53 11 -22 10 -124 -2 -166 -7 -24 -13
-46 -13 -49 -1 -3 -5 -11 -9 -17 -5 -7 -6 -17 -3 -22 3 -5 -1 -12 -10 -15 -9
-4 -14 -13 -10 -21 3 -8 1 -14 -3 -12 -5 1 -9 -1 -10 -6 -1 -12 -21 -34 -90
-103 -35 -35 -60 -64 -55 -64 5 -1 -1 -6 -13 -13 -12 -7 -23 -16 -24 -22 -4
-20 -39 -36 -91 -41 -29 -3 -66 -7 -83 -10 -16 -2 -64 -7 -105 -10 -41 -3 -80
-10 -87 -15 -7 -7 -14 -6 -18 1 -4 6 -13 7 -23 1 -9 -4 -32 -6 -49 -4 -21 3
-33 0 -33 -8 0 -8 -3 -9 -13 0 -8 6 -17 8 -20 5 -3 -4 -24 -6 -47 -6 -24 1
-40 -4 -40 -11 0 -8 -3 -8 -8 -2 -9 12 -32 18 -32 8 0 -5 -24 -8 -53 -9 -123
-2 -166 -7 -160 -18 4 -6 0 -5 -9 1 -8 7 -17 11 -19 9 -2 -2 -40 -7 -84 -11
-82 -6 -104 -9 -215 -21 -36 -4 -73 -9 -82 -10 -10 -1 -21 -2 -25 -4 -5 -1
-24 -1 -43 -1 -19 1 -42 -3 -50 -9 -11 -8 -8 -9 13 -4 15 3 27 2 27 -3 0 -6
102 -8 258 -6 356 5 432 7 432 13 0 3 15 5 32 4 19 -1 38 6 46 15 11 14 11 14
6 -1 -7 -20 20 -26 31 -8 4 7 12 7 24 0 10 -5 20 -7 23 -5 3 3 40 7 84 10 43
3 97 7 119 9 22 3 72 8 110 11 39 4 72 12 74 17 2 6 7 4 12 -3 8 -12 10 -12
18 0 10 16 20 3 16 -21 -2 -10 0 -18 3 -18 4 0 8 -20 9 -45 0 -25 5 -51 10
-58 26 -34 -19 -299 -48 -281 -5 3 -9 -2 -9 -10 0 -18 -78 -99 -135 -141 -22
-16 -42 -31 -45 -34 -15 -17 -90 -71 -99 -71 -5 0 -11 -4 -13 -8 -6 -15 -233
-120 -368 -170 -135 -51 -393 -132 -418 -132 -7 0 -10 -4 -7 -10 3 -5 0 -7 -8
-4 -22 8 -65 -13 -72 -37 -18 -55 60 -70 325 -64 212 6 247 8 321 20 58 9 191
45 204 55 6 4 17 7 25 7 8 0 47 16 87 36 39 19 74 32 77 29 3 -3 6 0 6 6 0 7
7 12 15 12 8 0 15 4 15 10 0 5 11 12 24 16 14 3 32 14 42 25 9 10 22 19 29 19
14 0 104 87 97 95 -3 3 0 5 6 5 7 0 12 7 12 16 0 8 4 13 8 10 5 -3 17 5 27 17
11 12 17 22 15 22 -2 0 5 10 15 23 11 12 18 25 17 29 -2 3 0 9 5 12 4 3 18 26
30 51 17 35 20 47 10 59 -9 12 -9 13 1 7 11 -6 17 5 13 27 0 4 3 7 7 7 5 0 7
14 6 30 -1 17 3 30 8 30 7 0 7 4 0 13 -5 6 -9 23 -8 37 1 14 0 29 -2 34 -3 5
-6 23 -7 40 -3 52 -17 120 -26 131 -4 6 -4 17 1 25 6 9 5 17 -3 22 -9 6 -8 8
2 8 11 0 11 3 0 17 -8 9 -9 14 -3 10 8 -4 14 6 18 28 4 19 11 35 16 35 6 0 10
7 10 16 0 8 5 12 10 9 6 -3 10 1 10 9 0 9 5 16 11 16 5 0 8 4 5 9 -3 5 12 18
34 29 22 10 36 23 32 27 -4 5 -1 5 6 1 7 -4 21 -4 30 0 9 4 19 8 22 9 16 6 49
19 77 31 38 17 46 18 37 2 -4 -6 -8 -21 -10 -32 -2 -12 -8 -40 -14 -64 -5 -23
-13 -59 -16 -80 -3 -20 -9 -53 -14 -72 -5 -19 -11 -52 -14 -73 -4 -21 -11 -48
-17 -59 -9 -16 -8 -19 3 -12 7 4 4 -2 -6 -14 -11 -12 -16 -22 -12 -22 3 0 -1
-14 -9 -30 -9 -17 -13 -35 -10 -40 3 -6 1 -10 -6 -10 -7 0 -10 -3 -6 -6 3 -4
0 -22 -8 -40 -8 -19 -12 -34 -10 -34 7 0 -67 -145 -76 -148 -5 -2 -9 -10 -9
-18 0 -8 -5 -14 -11 -14 -6 0 -9 -6 -6 -13 3 -7 -4 -19 -14 -25 -10 -7 -19
-19 -19 -27 0 -8 -4 -15 -10 -15 -5 0 -10 -7 -10 -15 0 -8 -11 -25 -25 -37
-13 -11 -22 -25 -19 -30 3 -5 2 -7 -3 -6 -13 4 -53 -35 -46 -45 3 -6 1 -7 -5
-3 -6 3 -17 -1 -25 -9 -9 -8 -20 -15 -26 -15 -6 0 -11 -4 -11 -9 0 -5 -8 -11
-17 -14 -10 -3 -40 -20 -68 -36 -76 -46 -226 -113 -250 -112 -2 0 -23 -6 -46
-14 -23 -8 -45 -12 -50 -9 -5 3 -9 1 -9 -4 0 -5 -6 -9 -12 -10 -7 0 -33 -6
-58 -12 -64 -17 -61 -16 -110 -24 -71 -11 -101 -14 -160 -17 l-55 -2 65 -7
c68 -8 215 -5 263 6 16 3 38 7 50 9 19 2 92 20 122 29 6 2 24 6 40 11 63 16
180 57 192 67 7 6 13 8 13 5 0 -10 197 103 209 120 3 5 16 13 28 20 19 11 22
9 33 -18 17 -39 95 -107 167 -144 32 -17 60 -33 63 -36 8 -11 142 -70 164 -73
12 -1 35 -8 51 -15 69 -30 166 -61 190 -61 14 0 25 -4 25 -9 0 -5 17 -12 38
-16 62 -11 211 -65 327 -117 61 -27 118 -52 129 -54 10 -2 26 -10 35 -17 9 -8
39 -27 68 -43 29 -16 57 -38 64 -51 10 -19 8 -26 -14 -53 -15 -17 -28 -29 -31
-28 -2 2 -16 -9 -30 -24 -14 -16 -27 -28 -30 -28 -6 0 -124 -74 -141 -88 -6
-5 -17 -6 -24 -4 -8 3 -11 0 -7 -7 4 -6 2 -9 -6 -6 -7 3 -31 -4 -53 -15 -21
-11 -45 -20 -52 -20 -7 0 -13 -4 -13 -10 0 -5 -3 -9 -7 -9 -25 4 -43 -2 -37
-13 4 -6 3 -8 -4 -4 -6 3 -23 1 -39 -6 -15 -6 -31 -12 -35 -13 -5 -2 -9 -3
-10 -5 -2 -1 -16 -4 -33 -6 -16 -3 -32 -8 -35 -12 -3 -4 -14 -8 -25 -9 -11 -1
-38 -5 -60 -9 -22 -3 -49 -7 -60 -9 -11 -1 -20 -3 -20 -5 0 -2 -45 -9 -75 -11
-8 -1 -21 -7 -29 -13 -11 -8 -13 -8 -8 0 4 7 -4 11 -23 10 -17 -1 -30 -4 -30
-7 0 -4 -16 -5 -35 -3 -20 1 -34 0 -31 -4 2 -4 -14 -7 -37 -7 -23 1 -45 -4
-49 -9 -5 -7 -8 -6 -8 3 0 10 -6 10 -26 -4 -15 -9 -23 -12 -20 -6 11 17 -15
13 -38 -6 -20 -17 -20 -17 -7 0 13 17 12 17 -15 12 -16 -4 -40 -6 -53 -6 -13
1 -31 -5 -39 -11 -11 -9 -14 -9 -9 -1 5 8 -1 11 -20 8 -16 -2 -45 -4 -66 -4
-26 -1 -36 -5 -31 -13 5 -7 3 -8 -7 -2 -18 11 -39 14 -39 6 0 -4 -24 -7 -52
-6 -35 0 -60 -5 -72 -15 -11 -9 -16 -10 -12 -3 5 8 -1 12 -19 12 -17 0 -24 -4
-19 -12 4 -7 3 -8 -4 -4 -21 13 -52 15 -52 3 0 -8 -3 -8 -12 1 -9 9 -16 8 -30
-5 -18 -16 -19 -16 -13 3 7 19 6 19 -9 0 -9 -11 -16 -15 -16 -9 0 12 -47 12
-67 0 -6 -4 -15 -2 -19 4 -4 8 -9 7 -15 -2 -5 -8 -9 -9 -9 -3 0 11 -44 13 -56
2 -3 -4 -17 -3 -30 2 -14 6 -24 6 -24 1 0 -5 -8 -8 -17 -6 -10 1 -24 -3 -32
-9 -11 -8 -13 -8 -7 2 4 7 1 12 -8 12 -9 0 -16 -6 -16 -12 0 -10 -3 -9 -9 1
-6 10 -13 11 -29 2 -14 -7 -23 -8 -27 -1 -4 6 -11 7 -17 4 -6 -4 -41 -8 -77
-9 -37 0 -72 -4 -79 -9 -7 -4 -12 -2 -12 5 0 7 -4 8 -12 2 -14 -10 -112 -9
-168 1 -19 4 -46 9 -60 11 -14 2 -34 6 -45 8 -11 3 -60 12 -110 22 -49 9 -94
19 -100 23 -5 4 -17 7 -25 9 -21 3 -92 35 -116 53 -12 8 -32 22 -44 30 -13 8
-38 28 -57 44 -18 15 -33 24 -33 20 0 -5 -16 16 -35 46 -46 71 -60 145 -43
223 5 21 9 43 11 50 1 6 7 17 12 23 6 7 19 24 29 38 27 37 66 78 66 70 0 -4
10 2 23 13 12 11 47 34 77 50 30 16 64 35 75 41 11 7 46 21 78 33 32 11 57 23
55 25 -2 2 -28 6 -57 9 -30 3 -72 10 -94 16 -21 6 -53 11 -71 11 -52 1 -227
91 -344 177 -35 25 -73 52 -85 58 -12 7 -18 13 -12 13 5 0 -7 9 -28 20 -20 11
-45 28 -55 38 -10 9 -32 27 -48 40 -79 61 -163 138 -163 151 -1 8 -7 11 -17 7
-8 -3 -13 -2 -10 3 8 12 -19 62 -28 53 -4 -4 -6 -2 -5 3 5 14 -24 75 -35 75
-4 0 -6 7 -3 15 4 8 2 17 -4 20 -5 4 -7 11 -3 16 3 5 2 15 -3 22 -5 7 -10 28
-12 48 -1 19 -4 44 -5 55 -7 43 43 174 81 213 20 21 28 40 24 64 0 4 3 7 9 7
5 0 8 13 6 28 -1 15 3 33 11 40 7 7 13 9 13 4 0 -10 51 -10 68 1 6 5 12 4 12
-1 0 -6 47 -10 105 -11 67 -1 105 2 105 9 0 5 -10 10 -22 11 -13 0 -32 2 -43
4 -11 2 -40 7 -65 11 -25 4 -49 8 -55 10 -5 1 -28 5 -50 8 -73 12 -84 21 -76
69 0 4 -4 7 -9 7 -6 0 -10 8 -10 18 0 10 -9 28 -20 40 -11 12 -20 29 -20 38 0
10 -3 15 -6 11 -8 -8 -33 16 -27 26 2 4 -3 10 -11 13 -9 3 -16 12 -16 20 0 8
-4 14 -10 14 -5 0 -10 7 -10 15 0 8 -4 15 -10 15 -5 0 -10 7 -10 15 0 8 -4 15
-10 15 -5 0 -10 9 -10 21 0 11 -4 17 -10 14 -5 -3 -10 3 -10 14 0 12 -5 21
-12 21 -6 0 -9 3 -6 6 4 3 0 21 -8 40 -8 19 -12 39 -9 45 4 5 -1 12 -10 15
-14 6 -14 9 -3 16 10 7 10 11 1 15 -9 3 -10 10 -3 23 7 13 7 21 0 25 -7 4 -5
14 4 27 8 11 12 27 9 34 -3 8 0 14 5 14 6 0 14 16 18 35 3 19 11 35 16 35 5 0
8 5 6 11 -2 7 8 25 22 42 68 80 68 81 123 83 141 6 307 24 307 34 0 4 11 5 24
3 13 -3 32 0 43 5 13 8 -40 11 -185 11 -112 0 -207 3 -212 6 -6 3 -6 15 0 30
7 17 5 25 -6 29 -8 3 -13 10 -9 15 7 13 -35 62 -47 55 -4 -3 -8 2 -8 10 0 9
-9 16 -20 16 -11 0 -20 4 -20 10 0 5 -11 12 -25 16 -14 3 -25 10 -25 15 0 5
-7 9 -16 9 -8 0 -32 11 -52 25 -20 14 -40 25 -44 25 -20 0 -120 99 -112 112 3
4 1 8 -3 8 -5 0 -17 17 -28 38 -11 20 -24 40 -30 44 -5 4 -6 8 -1 8 4 0 2 10
-6 23 -19 28 -60 137 -52 137 4 0 1 7 -6 15 -8 10 -9 15 -2 15 6 0 9 6 6 13
-9 23 -11 107 -3 107 5 0 6 7 2 16 -3 9 -1 19 6 23 6 4 13 21 14 38 1 17 4 30
7 28 3 -2 12 10 19 26 l13 29 76 -6 c163 -13 249 -20 342 -29 30 -3 91 -8 135
-10 44 -3 103 -7 130 -10 47 -4 152 -9 400 -21 242 -11 686 -7 740 7 23 6 17
7 -30 7 -33 0 -62 1 -65 2 -3 1 -45 4 -95 5 -49 2 -157 6 -240 11 -82 4 -200
8 -262 8 -61 1 -106 4 -100 8 6 4 -27 7 -73 8 -47 1 -116 4 -155 6 -38 2 -113
5 -166 7 -54 1 -95 5 -93 9 2 3 -15 6 -38 6 -24 0 -65 3 -93 6 -27 4 -86 9
-130 11 -44 2 -81 5 -82 6 -9 6 -30 4 -42 -5 -11 -8 -13 -8 -7 2 5 9 -4 12
-36 13 -77 1 -98 9 -81 31 8 12 9 26 5 82 -1 11 -7 16 -16 13 -9 -4 -12 0 -10
11 4 16 -54 62 -77 62 -5 0 -9 5 -9 12 0 6 -3 9 -6 5 -3 -3 -25 2 -47 12 -23
10 -64 21 -92 25 -27 4 -61 10 -75 12 -14 3 -35 7 -48 9 -114 18 -173 30 -204
41 -21 7 -38 11 -38 7 0 -3 -6 -1 -12 4 -7 6 -25 13 -40 17 -16 3 -28 11 -28
17 0 6 -4 8 -9 5 -5 -3 -19 2 -32 12 -13 10 -45 29 -71 42 -27 14 -48 29 -48
33 0 5 -4 5 -10 2 -6 -3 -10 1 -10 9 0 9 -4 16 -8 16 -11 0 -52 35 -52 44 0 3
-9 17 -21 30 -12 13 -19 26 -18 29 2 3 -4 13 -13 24 -61 67 -63 234 -4 286 34
30 153 107 165 107 6 0 11 4 11 8 0 13 40 8 41 -5 2 -15 6 -32 8 -35 2 -2 5
-21 7 -43 3 -22 8 -42 12 -45 4 -3 9 -16 11 -30 1 -14 7 -33 12 -42 13 -24 11
-38 -6 -38 -8 0 -35 -12 -60 -27 -34 -21 -46 -36 -51 -59 -7 -40 15 -85 58
-117 46 -34 213 -87 229 -73 9 8 10 8 6 0 -6 -11 55 -28 143 -40 25 -3 64 -9
87 -14 23 -4 53 -7 65 -6 13 1 25 -1 28 -5 3 -4 39 -10 80 -13 41 -4 89 -8
105 -11 17 -2 62 -6 100 -9 39 -3 79 -7 90 -10 11 -2 26 2 34 8 11 8 13 8 7
-1 -5 -10 3 -13 31 -14 21 0 63 -2 93 -4 30 -2 109 -6 175 -10 66 -3 157 -7
203 -10 58 -2 82 0 82 8 0 8 3 8 8 2 4 -6 27 -12 52 -13 25 -1 64 -4 88 -6 23
-2 42 1 42 6 0 5 6 6 13 1 18 -11 60 -11 76 1 11 8 13 8 8 0 -9 -15 255 -14
265 1 5 6 8 6 8 -2 0 -7 9 -13 21 -13 13 0 18 4 13 12 -5 7 -3 8 7 2 19 -12
32 -12 48 0 11 8 13 8 7 -1 -4 -8 -1 -13 8 -13 9 0 16 6 16 13 0 8 3 8 8 2 8
-13 22 -13 41 -1 9 6 16 6 18 0 3 -8 58 -9 231 -2 35 1 62 7 62 13 0 5 4 5 8
-2 8 -12 70 -12 90 1 6 3 13 2 17 -4 4 -6 10 -8 15 -5 4 3 47 6 94 7 58 1 83
5 79 12 -4 6 0 5 9 -1 8 -7 17 -11 19 -9 2 3 62 7 134 11 71 3 134 10 140 14
9 6 30 7 38 1 7 -6 49 -6 52 1 3 4 15 5 27 1 16 -4 19 -2 13 9 -7 11 -6 12 6
3 8 -6 23 -10 34 -8 11 2 43 5 70 6 28 2 53 7 57 13 5 6 8 5 8 -3 0 -7 4 -11
8 -8 4 2 41 7 82 10 41 4 93 9 115 12 22 3 52 6 68 7 15 0 27 3 27 6 0 3 21 7
48 8 104 4 142 8 142 15 0 4 7 5 15 2 8 -4 23 -3 33 1 9 5 26 9 37 10 11 1 43
6 70 10 28 4 58 7 68 7 10 -1 15 4 11 10 -4 7 -2 8 5 4 6 -4 19 -2 28 6 14 11
16 11 8 -2 -7 -13 -6 -13 7 -2 9 7 20 12 24 11 23 -4 65 2 61 9 -5 6 22 10 81
12 13 0 21 4 18 9 -4 5 2 8 11 7 24 -4 134 34 128 43 -2 5 7 6 20 3 15 -2 25
0 25 7 0 7 4 10 8 7 5 -3 18 3 29 14 12 10 23 17 25 14 3 -2 13 5 24 17 28 31
24 122 -6 154 -23 25 -76 53 -110 60 -11 2 -25 7 -30 10 -9 5 -19 8 -65 18 -5
2 -16 7 -24 11 -11 7 -12 6 -6 -5 7 -11 6 -12 -6 -3 -13 11 -25 14 -104 29
-16 3 -37 8 -45 10 -8 2 -21 4 -28 4 -7 1 -20 17 -29 36 -9 19 -19 33 -22 31
-3 -2 -7 8 -8 22 0 14 -8 31 -15 36 -8 6 -13 16 -11 22 2 7 42 4 121 -9 64
-10 124 -20 134 -21z m-4964 -43 c12 1 22 6 22 11 0 6 5 5 11 -1 7 -7 21 -8
40 -3 18 5 29 5 29 -1 0 -6 5 -7 12 -3 15 9 148 11 154 3 2 -4 19 -3 38 1 19
4 40 4 47 -1 7 -4 17 -5 21 -3 4 3 13 2 19 -2 6 -3 -8 -15 -32 -26 -24 -10
-46 -22 -49 -26 -3 -5 -21 -19 -40 -32 -74 -52 -170 -138 -170 -154 0 -6 -8
-19 -18 -30 -19 -23 -57 -112 -67 -161 -14 -64 -16 -67 -38 -61 -84 25 -186
47 -227 50 -14 1 -30 5 -35 8 -20 11 -210 6 -217 -5 -6 -9 -8 -8 -8 1 0 7 -4
11 -9 7 -5 -3 -22 -7 -38 -10 -15 -2 -35 -6 -43 -8 -57 -15 -70 -20 -70 -28 0
-5 -8 -5 -17 -2 -12 5 -15 2 -11 -9 4 -8 1 -15 -8 -15 -7 0 -10 5 -7 11 4 5
-8 0 -25 -13 -18 -12 -29 -27 -26 -33 4 -6 3 -8 -3 -5 -16 10 -59 -43 -85
-103 -27 -62 -34 -163 -16 -240 5 -25 11 -49 12 -55 1 -5 4 -14 7 -20 4 -5 9
-23 13 -40 14 -55 99 -220 130 -250 6 -6 16 -19 23 -30 6 -11 16 -19 22 -18 6
2 8 -4 5 -12 -3 -8 3 -19 15 -27 12 -7 21 -17 21 -21 0 -20 129 -149 141 -141
5 3 9 2 8 -3 -4 -21 3 -32 22 -38 11 -4 18 -9 15 -12 -3 -3 11 -18 32 -33 20
-15 50 -39 65 -54 15 -14 30 -26 33 -26 5 0 23 -14 53 -40 9 -9 35 -27 56 -40
22 -13 42 -26 45 -29 8 -9 43 -30 73 -44 15 -7 24 -16 20 -20 -3 -4 3 -7 14
-7 11 0 28 -9 38 -20 10 -11 22 -17 26 -14 5 3 9 0 9 -7 0 -7 3 -10 6 -6 4 3
13 -1 21 -9 8 -8 19 -12 24 -9 5 4 9 2 9 -3 0 -9 37 -25 53 -23 4 1 7 -3 7 -8
0 -8 83 -44 96 -41 4 1 11 -5 16 -13 4 -8 16 -14 25 -13 10 2 24 -3 32 -11 7
-8 20 -12 27 -9 8 3 14 2 14 -3 0 -11 167 -64 179 -57 5 4 11 2 13 -4 1 -5 15
-11 31 -12 15 -1 27 -5 27 -8 0 -6 16 -8 85 -12 19 -1 35 -7 35 -13 0 -5 4 -4
9 3 10 17 21 17 31 2 5 -8 13 -9 21 -4 22 13 47 15 55 3 9 -15 14 -100 17
-285 l2 -161 -35 10 c-35 9 -188 62 -225 77 -11 4 -36 15 -57 24 -20 9 -41 16
-47 16 -6 0 -11 5 -11 11 0 5 -4 7 -10 4 -5 -3 -10 -1 -10 4 0 6 -3 10 -7 9
-19 -5 -53 15 -54 30 0 10 -3 12 -6 5 -5 -14 -103 32 -103 49 0 5 -4 6 -10 3
-6 -3 -10 -1 -10 5 0 6 -4 8 -10 5 -5 -3 -10 -1 -10 5 0 6 -4 8 -10 5 -6 -3
-10 -2 -10 2 0 5 -17 17 -37 28 -20 11 -42 26 -50 33 -7 7 -22 14 -32 15 -11
0 -18 4 -15 8 2 4 -13 18 -33 30 -21 13 -40 25 -43 28 -3 4 -15 12 -27 19 -13
6 -33 18 -45 25 -13 6 -25 14 -28 17 -3 3 -23 17 -45 31 -22 14 -53 34 -69 45
-16 10 -36 24 -44 29 -9 6 -26 19 -40 30 -13 11 -26 19 -28 17 -3 -1 -12 4
-20 13 -9 8 -21 12 -27 8 -7 -3 -9 -3 -5 2 9 10 -16 35 -36 35 -9 0 -16 5 -16
10 0 6 -6 10 -14 10 -8 0 -16 3 -18 8 -7 16 -70 62 -79 56 -5 -3 -9 2 -9 10 0
8 -10 20 -21 27 -12 6 -35 24 -50 40 -16 17 -29 27 -29 24 0 -3 -25 19 -55 50
-30 30 -55 58 -55 62 0 10 -42 38 -53 35 -5 -1 -6 2 -3 6 3 5 -4 21 -17 34
-45 50 -103 122 -122 152 -10 17 -22 33 -25 36 -4 3 -21 26 -39 53 -17 26 -37
47 -43 47 -6 0 -9 3 -5 6 3 4 -13 34 -36 68 -22 33 -40 63 -38 65 1 2 -1 7 -6
10 -12 9 -50 91 -61 133 -11 40 -9 236 2 278 4 14 8 30 9 35 2 6 6 16 11 23 4
7 5 20 2 28 -4 10 -2 13 6 8 8 -5 9 -2 5 9 -3 10 -2 17 3 17 5 0 12 10 16 23
4 12 11 25 16 28 5 3 10 15 11 27 0 11 4 19 8 16 4 -2 13 9 20 25 7 16 17 27
21 25 4 -3 8 0 8 5 0 6 31 41 70 79 88 85 97 92 104 85 3 -3 8 2 12 11 3 9 12
16 20 16 8 0 14 4 14 9 0 5 11 12 25 15 14 4 25 11 25 16 0 6 6 10 13 10 6 0
23 6 37 13 14 7 48 22 77 32 29 10 50 21 48 24 -2 3 7 7 18 7 38 3 70 13 79
26 5 9 8 9 8 1 0 -6 9 -9 20 -6 11 3 20 9 20 13 0 5 9 6 20 3 11 -3 20 -1 20
4 0 6 11 8 25 5 14 -2 25 0 25 6 0 6 11 9 25 6 14 -2 25 -1 25 4 0 4 10 8 23
9 20 0 63 6 152 19 17 2 45 4 63 4 19 0 32 4 32 12 0 10 2 10 8 1 4 -7 18 -11
30 -10z m4925 -178 c9 -4 23 -5 31 -2 8 3 16 1 18 -5 3 -9 13 -12 73 -20 11
-2 23 -7 26 -11 3 -5 12 -9 20 -11 8 -1 36 -13 62 -25 l48 -24 -36 -24 c-20
-13 -75 -38 -123 -54 -48 -17 -95 -35 -106 -40 -14 -8 -16 -8 -11 3 6 10 5 11
-6 1 -7 -7 -26 -13 -41 -13 -15 0 -28 -4 -28 -8 0 -4 -9 -8 -19 -8 -15 0 -17
3 -9 14 7 7 12 60 12 128 l1 114 35 -3 c19 -3 43 -8 53 -12z m-4322 -139 c1
-6 1 -15 0 -19 -1 -4 6 -10 14 -13 8 -3 12 -10 9 -15 -3 -5 0 -9 5 -9 6 0 11
-7 11 -15 0 -9 7 -18 15 -21 8 -4 12 -10 9 -15 -3 -5 -1 -9 4 -9 5 0 12 -8 16
-17 3 -10 9 -24 12 -32 5 -10 3 -11 -7 -5 -8 5 -18 9 -24 10 -37 7 -174 56
-193 70 l-23 16 20 22 c12 13 19 25 17 27 -3 3 5 6 17 6 12 1 23 7 25 13 2 5
7 8 12 5 4 -3 13 2 20 10 12 15 39 10 41 -9z m-545 -112 c-4 -9 -9 -15 -11
-12 -3 3 -3 13 1 22 4 9 9 15 11 12 3 -3 3 -13 -1 -22z m-416 -91 c99 -1 158
-7 199 -19 18 -5 22 -4 16 5 -4 8 4 6 18 -4 15 -9 31 -14 37 -10 5 3 10 1 10
-4 0 -6 9 -11 21 -11 29 0 59 -18 59 -36 0 -8 4 -13 8 -10 5 3 9 0 9 -7 0 -7
21 -55 47 -108 25 -53 46 -101 46 -106 0 -6 10 -21 23 -35 12 -13 35 -42 51
-64 16 -21 83 -93 148 -158 65 -66 124 -132 130 -148 7 -15 15 -28 18 -28 3 0
7 -12 8 -27 1 -15 6 -29 11 -32 4 -3 6 -17 5 -31 -5 -32 -7 -83 -4 -92 3 -11
5 -18 14 -63 4 -22 13 -49 20 -60 7 -11 23 -49 36 -85 32 -88 65 -151 93 -173
12 -10 15 -15 7 -11 -8 5 3 -15 25 -44 22 -28 46 -51 53 -52 7 0 11 -4 8 -8
-3 -5 4 -18 14 -30 11 -12 20 -25 20 -31 0 -5 6 -11 13 -14 6 -3 2 -4 -10 -4
-12 1 -19 5 -16 9 2 5 -10 8 -29 7 -18 -2 -44 3 -57 10 -19 11 -22 11 -16 -1
6 -10 5 -11 -5 -1 -11 10 -17 10 -29 0 -12 -9 -13 -9 -7 1 7 12 -9 17 -46 14
-10 -1 -18 2 -18 8 0 5 -9 7 -20 5 -11 -2 -22 0 -25 5 -3 4 -13 7 -23 6 -9 -2
-20 1 -23 7 -4 5 -23 10 -43 11 -20 0 -36 4 -36 9 0 4 -8 7 -18 7 -10 0 -23 5
-30 12 -7 7 -12 9 -12 5 0 -4 -13 -1 -30 8 -16 9 -30 13 -30 9 0 -3 -11 1 -25
10 -14 9 -30 14 -35 11 -6 -4 -13 0 -16 9 -3 8 -12 12 -20 9 -8 -3 -14 -1 -14
5 0 6 -8 9 -17 8 -9 -2 -25 6 -36 17 -11 11 -27 17 -38 14 -10 -3 -17 -1 -16
3 2 7 -74 51 -160 94 -13 6 -23 14 -23 19 0 4 -6 7 -13 7 -8 0 -27 11 -42 24
-16 14 -32 23 -36 20 -4 -2 -10 3 -13 12 -4 9 -13 14 -22 10 -8 -3 -13 -2 -10
2 3 5 -4 15 -15 23 -12 8 -35 24 -51 36 -17 12 -36 20 -41 16 -6 -3 -7 -2 -4
4 5 8 -34 53 -47 53 -2 0 -24 19 -48 43 -25 23 -58 54 -74 68 -39 34 -94 97
-94 106 -1 5 -14 19 -30 33 -17 13 -30 30 -30 36 0 7 -3 14 -7 16 -10 4 -53
65 -53 74 0 3 -8 18 -19 32 -10 15 -31 59 -46 97 -22 56 -27 84 -26 140 2 96
4 114 12 109 14 -9 21 38 8 48 -11 7 -11 8 2 6 8 -2 31 14 51 35 19 20 40 37
47 37 6 0 11 4 11 8 0 8 73 46 90 47 3 1 14 4 25 8 23 8 82 18 108 18 9 0 17
6 17 12 0 8 3 8 8 2 4 -5 50 -11 102 -12z m5045 -1357 c0 -19 -4 -32 -8 -29
-4 3 -7 -13 -7 -34 2 -42 -6 -102 -14 -110 -2 -3 -1 -16 5 -30 6 -16 6 -22 -1
-18 -6 4 -10 -12 -10 -39 0 -55 1 -48 -10 -88 -7 -22 -6 -36 3 -47 8 -10 8
-13 0 -8 -17 10 -35 -47 -20 -63 9 -10 9 -11 0 -6 -7 4 -14 4 -14 -1 -1 -4 -3
-17 -5 -28 -1 -11 -6 -33 -9 -50 -4 -16 -8 -37 -10 -45 -2 -8 -4 -16 -4 -17
-1 -2 -1 -5 -1 -8 0 -3 -6 -18 -14 -34 -9 -16 -12 -31 -9 -35 4 -3 0 -6 -8 -6
-11 0 -11 -2 1 -10 11 -7 11 -10 2 -10 -7 0 -10 -4 -7 -10 3 -5 2 -10 -2 -10
-5 0 -21 -25 -36 -54 -16 -30 -37 -58 -48 -61 -10 -4 -16 -11 -13 -17 4 -7 2
-8 -5 -4 -6 4 -17 3 -24 -2 -7 -5 -40 -19 -75 -30 -58 -19 -61 -19 -52 -3 5
10 6 22 2 26 -4 3 0 5 8 3 8 -2 14 3 13 10 -2 6 1 12 7 12 5 0 6 7 3 17 -5 12
-3 14 7 8 10 -6 12 -4 7 7 -3 9 0 24 8 34 7 10 11 24 8 31 -3 7 0 13 5 13 6 0
9 9 7 20 -2 11 -1 22 3 24 9 5 8 133 -1 142 -3 3 -3 12 0 20 3 8 1 14 -3 14
-5 0 -9 12 -10 28 -1 33 -8 70 -15 77 -3 3 -3 26 2 53 4 31 3 52 -5 61 -8 12
-8 13 2 7 9 -6 11 -1 8 18 -3 14 0 26 5 26 5 0 7 11 5 25 -3 14 -1 23 5 20 5
-4 9 3 9 14 0 11 5 23 11 27 8 4 7 9 -2 15 -11 7 -10 9 4 9 10 0 16 4 12 9 -3
5 2 16 10 24 8 9 15 21 15 27 0 26 42 51 126 75 49 15 90 29 92 33 1 4 12 8
25 10 19 1 22 -4 22 -32z m-380 -435 c3 -5 2 -12 -3 -15 -5 -3 -9 1 -9 9 0 17
3 19 12 6z m-242 -676 c-3 -9 -8 -14 -10 -11 -3 3 -2 9 2 15 9 16 15 13 8 -4z
m-2387 -920 c12 -8 24 -11 28 -8 3 3 6 1 6 -6 0 -7 5 -9 10 -6 13 8 2 -47 -11
-55 -4 -3 -10 -17 -14 -32 -4 -15 -13 -29 -22 -32 -8 -3 -11 -11 -7 -17 4 -8
3 -9 -4 -5 -7 4 -16 -2 -22 -16 -6 -13 -42 -43 -80 -68 -39 -24 -70 -48 -70
-53 0 -4 -5 -5 -10 -2 -6 3 -13 -1 -16 -9 -3 -9 -14 -16 -24 -16 -10 0 -21 -7
-24 -16 -3 -8 -10 -12 -16 -9 -5 3 -10 1 -10 -4 0 -6 -6 -11 -14 -11 -8 0 -16
-7 -20 -15 -3 -8 -12 -15 -19 -15 -8 0 -26 -9 -41 -21 -14 -11 -26 -18 -26
-14 0 4 -12 -3 -26 -14 -15 -11 -31 -18 -37 -14 -6 3 -7 1 -3 -5 4 -7 1 -12
-8 -12 -9 0 -16 -5 -16 -11 0 -5 -4 -7 -10 -4 -5 3 -10 1 -10 -5 0 -6 -4 -8
-10 -5 -5 3 -21 -1 -34 -10 -14 -9 -27 -16 -31 -16 -3 1 -30 -10 -60 -24 -31
-14 -60 -25 -65 -25 -6 0 -10 -3 -10 -8 0 -4 -30 -18 -67 -31 -38 -13 -106
-42 -153 -64 -47 -23 -86 -39 -87 -36 -1 2 -12 -6 -25 -19 -14 -12 -28 -19
-31 -15 -4 3 -7 1 -7 -5 0 -6 -10 -14 -22 -18 -12 -3 -28 -13 -36 -20 -7 -8
-18 -12 -23 -9 -5 4 -9 1 -9 -6 0 -13 -60 -4 -94 14 -40 22 -55 66 -31 90 8 8
11 18 7 22 -4 4 -2 6 3 4 18 -4 45 13 38 24 -3 5 -1 7 4 4 6 -4 22 2 35 13 14
11 28 16 32 13 3 -3 6 -1 6 5 0 7 7 12 16 12 8 0 12 4 9 10 -3 6 1 7 9 4 9 -3
16 -1 16 5 0 6 9 11 19 11 10 0 22 7 25 16 3 8 10 13 15 10 8 -5 38 6 181 67
14 6 31 12 39 13 8 1 17 6 20 11 3 4 11 8 16 9 6 0 26 7 45 14 19 8 35 12 36
9 0 -2 8 4 18 14 10 9 22 15 27 12 5 -4 9 -2 9 4 0 6 7 8 15 5 8 -3 17 0 20 8
3 8 11 15 18 15 21 0 147 64 147 74 0 6 4 8 10 4 9 -6 122 53 128 67 2 4 10 4
18 1 8 -3 14 -1 14 5 0 10 57 36 73 33 4 0 7 4 7 10 0 5 4 8 9 5 5 -4 11 -3
13 2 1 4 26 22 55 39 28 18 64 42 78 55 30 26 57 72 48 82 -12 12 13 6 33 -9z
m-1036 -925 c52 -12 104 -23 115 -26 11 -2 49 -11 85 -20 36 -9 76 -18 90 -19
14 -2 27 -4 30 -5 3 -1 9 -2 14 -1 4 1 13 -3 20 -8 7 -6 30 -12 51 -15 22 -2
40 -5 40 -6 0 -1 11 -3 25 -6 14 -2 32 -7 40 -11 8 -3 22 -7 30 -8 49 -8 85
-17 101 -26 14 -7 19 -6 19 3 0 10 2 10 8 1 7 -12 57 -25 100 -27 12 -1 22 -5
22 -9 0 -5 4 -6 9 -2 5 3 12 2 15 -3 2 -4 20 -7 40 -7 21 1 33 -2 29 -8 -4 -6
3 -8 15 -5 12 4 25 2 28 -3 3 -5 10 -7 15 -3 5 3 16 1 24 -6 9 -8 15 -8 20 0
4 7 11 8 18 1 11 -8 46 -17 107 -25 30 -5 75 -13 110 -22 14 -3 32 -7 40 -8 9
-1 21 -5 28 -10 7 -4 12 -2 13 6 0 10 2 10 6 1 2 -7 11 -13 19 -13 10 0 12 5
8 13 -6 9 -4 9 8 -1 9 -7 38 -15 65 -18 94 -9 178 -16 206 -17 15 0 27 -4 27
-9 0 -5 9 -4 20 2 11 6 20 7 20 2 0 -12 42 -13 56 -1 8 7 14 6 19 -1 4 -6 23
-10 43 -10 20 1 54 -1 75 -3 20 -2 37 0 37 5 0 5 6 6 13 1 20 -13 68 -12 60 1
-4 6 1 5 10 -3 14 -11 20 -11 34 0 10 8 14 9 10 2 -5 -8 9 -11 52 -10 34 1 57
5 54 11 -3 5 -1 6 6 2 21 -13 81 -15 81 -3 0 8 4 7 9 -2 6 -9 10 -10 16 -2 4
8 11 9 19 2 7 -6 17 -6 26 -1 9 6 20 4 29 -3 11 -9 15 -9 18 1 3 6 9 9 14 6 6
-3 17 0 26 8 12 9 15 9 9 1 -5 -9 -1 -13 11 -13 11 0 25 6 32 13 8 7 11 7 8 1
-8 -14 41 -16 49 -3 3 5 11 6 17 2 17 -11 41 -10 49 2 5 6 8 5 8 -3 0 -10 5
-10 20 -2 15 8 20 8 20 -2 0 -10 2 -10 9 1 6 9 11 10 15 2 4 -6 13 -8 19 -4 7
4 22 8 35 9 12 0 25 4 29 7 3 4 12 2 20 -4 7 -6 13 -7 13 -2 0 5 17 8 38 7 20
-1 43 3 50 8 8 7 12 7 12 -1 0 -7 5 -9 12 -5 6 4 32 7 57 7 25 0 49 5 53 11 5
8 8 8 8 0 0 -6 14 -9 33 -7 17 2 47 4 65 4 18 0 32 5 32 12 0 8 4 7 10 -3 8
-12 10 -12 10 -1 0 10 3 11 13 2 8 -6 17 -7 21 -3 12 11 56 9 56 -3 0 -5 4 -4
8 2 4 7 18 11 30 8 13 -2 22 1 22 8 0 7 4 6 10 -3 5 -8 10 -10 10 -4 0 6 13 9
31 6 20 -3 34 0 40 9 5 8 9 9 9 3 0 -11 27 -13 45 -3 6 4 31 5 58 4 26 -1 47
1 47 4 0 3 21 6 46 6 27 -1 53 5 60 13 8 7 14 9 14 3 0 -5 11 -8 25 -5 14 2
38 6 54 8 15 2 34 7 41 11 9 5 11 4 6 -3 -5 -9 0 -9 19 -2 15 6 42 10 61 10
19 0 34 5 34 11 0 8 5 8 15 -1 8 -7 15 -8 15 -3 0 5 15 10 33 10 50 1 90 11
99 25 6 10 8 10 8 -1 0 -9 4 -10 13 -4 6 6 20 9 30 8 9 -2 17 1 17 6 0 6 5 7
10 4 6 -3 16 -3 23 2 6 4 20 8 30 8 10 0 22 7 27 15 8 12 10 12 10 1 0 -9 4
-10 13 -3 6 5 23 12 37 14 14 1 27 6 30 9 3 4 19 9 35 13 l30 7 -1 -58 c0 -32
-6 -68 -12 -79 -6 -12 -9 -24 -6 -27 11 -11 -35 -73 -87 -117 -48 -40 -210
-120 -244 -120 -8 0 -15 -3 -15 -7 0 -5 -15 -9 -32 -10 -18 -2 -34 -7 -36 -13
-2 -6 -7 -8 -11 -6 -4 3 -32 -1 -62 -9 -30 -9 -67 -18 -84 -21 -16 -3 -34 -7
-40 -8 -5 -2 -31 -6 -58 -11 -65 -10 -75 -29 -11 -21 27 4 67 9 89 11 188 18
459 95 440 125 -3 5 0 7 8 4 8 -3 30 8 50 25 27 24 36 28 40 17 3 -8 1 -16 -4
-18 -5 -2 -11 -13 -12 -26 0 -12 -5 -22 -10 -22 -5 0 -3 -8 4 -17 8 -9 9 -14
3 -10 -12 7 -48 -99 -39 -114 3 -4 0 -9 -5 -11 -6 -2 -12 -15 -14 -29 -1 -13
-5 -29 -8 -34 -3 -6 -4 -20 -3 -32 1 -13 -2 -23 -7 -23 -5 0 -6 -4 -3 -10 3
-5 1 -10 -5 -10 -8 0 -7 -6 1 -21 9 -17 8 -20 -2 -14 -9 6 -11 2 -7 -13 4 -12
3 -24 -2 -27 -4 -2 -6 -23 -5 -45 1 -22 -1 -40 -4 -40 -4 0 -8 -14 -9 -31 -2
-22 1 -28 10 -23 9 6 9 3 -1 -9 -7 -9 -10 -17 -7 -17 4 0 4 -5 0 -12 -4 -7 -9
-27 -11 -46 -3 -25 -1 -32 9 -26 10 6 9 3 -1 -9 -7 -9 -11 -30 -9 -47 3 -16 2
-30 -2 -30 -8 0 -6 -37 3 -46 3 -4 3 -14 -1 -23 -11 -21 -9 -122 2 -140 6 -9
5 -12 -1 -8 -17 10 -10 -66 7 -81 13 -11 13 -11 -1 -7 -13 5 -15 -2 -13 -41 1
-26 9 -51 16 -55 11 -7 11 -9 -1 -9 -10 0 -12 -9 -6 -37 4 -21 9 -48 11 -60
17 -94 17 -97 29 -105 6 -5 5 -8 -3 -8 -10 0 -9 -7 3 -30 8 -16 15 -32 15 -35
-1 -29 1 -35 12 -29 7 5 8 3 2 -7 -11 -19 -14 -40 -4 -34 7 4 10 -8 26 -110 3
-22 10 -44 14 -49 5 -5 6 -15 3 -22 -3 -8 0 -14 7 -14 6 0 8 -4 5 -10 -3 -5 0
-10 7 -11 10 0 10 -2 0 -6 -6 -2 -9 -10 -5 -16 4 -7 9 -23 11 -37 1 -14 5 -32
9 -40 3 -8 7 -19 9 -25 8 -29 17 -63 21 -87 3 -16 8 -28 12 -28 3 0 7 -14 8
-32 1 -17 6 -34 10 -37 5 -3 9 -19 11 -36 2 -16 8 -33 14 -36 5 -3 9 -9 9 -13
-4 -26 0 -36 12 -30 9 5 9 4 0 -6 -13 -14 2 -60 21 -60 6 0 4 -5 -4 -10 -8 -5
-10 -10 -4 -10 7 0 15 -16 18 -35 4 -19 11 -35 16 -35 5 0 7 -7 4 -15 -4 -8
-2 -15 3 -15 5 0 10 -10 10 -22 1 -13 7 -24 13 -26 5 -2 8 -7 5 -12 -3 -5 0
-14 7 -22 7 -7 15 -22 16 -33 2 -11 8 -24 13 -29 5 -6 9 -18 9 -28 0 -10 5
-18 11 -18 5 0 8 -4 4 -9 -3 -5 0 -15 7 -23 13 -14 20 -33 21 -55 0 -7 4 -13
9 -13 4 0 8 -7 8 -15 0 -8 4 -15 10 -15 5 0 7 -6 4 -14 -3 -8 0 -17 5 -21 6
-3 9 -11 6 -16 -4 -5 -1 -9 4 -9 6 0 11 -7 11 -15 0 -8 4 -23 9 -33 16 -31 30
-67 33 -82 2 -8 9 -21 16 -28 7 -8 10 -17 7 -22 -3 -5 -1 -11 5 -15 5 -3 10
-15 10 -26 0 -11 4 -17 10 -14 6 4 10 -5 10 -20 0 -18 4 -24 13 -19 9 5 9 4 1
-5 -10 -11 -20 -14 -83 -27 -13 -3 -31 -9 -40 -13 -9 -5 -29 -11 -46 -14 -16
-3 -52 -10 -80 -17 -27 -6 -61 -14 -75 -16 -14 -2 -52 -9 -85 -14 -80 -14
-135 -21 -163 -21 -13 1 -21 -3 -18 -7 2 -4 -11 -6 -31 -4 -28 4 -34 2 -28 -9
6 -11 5 -11 -5 -2 -9 8 -19 9 -32 2 -10 -5 -18 -7 -18 -4 0 4 -5 3 -11 -1 -6
-4 -32 -8 -58 -10 -25 -2 -64 -6 -86 -9 -74 -11 -180 -22 -267 -28 -10 -1 -18
-6 -18 -12 0 -5 -5 -3 -10 5 -7 10 -12 12 -17 4 -5 -6 -27 -11 -50 -10 -24 1
-43 -3 -43 -7 0 -5 -7 -4 -15 3 -12 10 -15 9 -15 -6 0 -14 -3 -15 -12 -6 -7 7
-17 8 -30 1 -10 -5 -18 -6 -18 -2 0 4 -5 1 -10 -7 -7 -12 -10 -12 -10 -1 0 8
-6 11 -17 6 -18 -7 -110 -15 -195 -18 -27 -1 -48 -6 -48 -11 0 -5 -3 -6 -7 -3
-3 4 -13 1 -21 -6 -13 -10 -14 -9 -8 1 6 10 1 12 -20 9 -16 -3 -38 -9 -48 -13
-12 -5 -17 -4 -13 3 3 5 -3 9 -16 7 -12 -1 -28 -3 -35 -3 -7 -1 -10 -6 -6 -13
5 -7 3 -8 -7 -2 -18 11 -219 12 -219 1 0 -5 -5 -5 -10 -2 -16 10 -160 11 -160
1 0 -5 -6 -3 -14 3 -10 8 -16 9 -21 1 -4 -7 -12 -7 -24 0 -10 5 -21 6 -25 3
-4 -4 -58 -6 -121 -6 -82 1 -115 -2 -115 -10 0 -8 -3 -8 -8 -2 -11 15 -63 16
-81 2 -8 -7 -12 -7 -9 -1 5 7 -37 10 -133 10 -76 -1 -139 -5 -139 -9 0 -5 -6
-5 -12 0 -7 4 -87 9 -178 11 -317 6 -350 7 -350 13 0 8 -73 5 -87 -4 -8 -5
-13 -4 -13 2 0 6 -9 11 -20 11 -11 0 -20 -6 -20 -12 0 -10 -2 -10 -8 -1 -4 6
-42 13 -88 16 -45 2 -86 7 -92 11 -6 3 -13 2 -17 -4 -4 -6 -11 -7 -17 -4 -10
7 -60 12 -148 17 -19 2 -41 6 -47 10 -8 5 -13 3 -13 -5 0 -8 -3 -9 -8 -3 -8
12 -17 14 -80 19 -26 3 -47 5 -47 6 0 3 -51 10 -87 12 -21 2 -38 5 -38 8 0 3
-8 6 -17 7 -28 2 -105 12 -133 17 -14 3 -47 7 -75 10 -27 3 -63 8 -80 12 -16
3 -39 7 -50 8 -12 1 -26 6 -33 10 -7 4 -19 5 -27 2 -8 -3 -15 -1 -15 3 0 5 -8
8 -17 6 -10 -1 -23 1 -28 6 -6 4 -22 10 -35 13 -25 4 -44 10 -77 23 -10 3 -20
7 -23 7 -41 9 -107 31 -114 37 -6 5 -22 9 -37 9 -18 0 -28 6 -32 20 -3 11 -1
18 3 15 4 -3 13 9 19 25 5 17 8 30 5 30 -2 0 5 9 16 20 12 12 18 25 15 30 -4
6 -1 10 6 10 6 0 9 8 6 20 -3 11 -1 18 4 14 8 -5 13 9 10 29 0 4 4 7 10 7 6 0
9 7 5 15 -3 9 0 15 9 15 9 0 12 6 9 15 -4 8 -1 15 6 15 6 0 9 4 5 9 -3 5 -1
12 5 16 5 3 10 15 10 26 0 10 5 19 12 19 6 0 9 3 5 6 -3 3 8 36 25 72 16 37
29 69 29 72 0 3 7 20 16 37 8 18 13 40 9 48 -4 11 -2 14 6 9 7 -5 9 0 6 14 -3
12 -1 20 4 19 10 -2 16 14 20 56 1 9 5 17 9 17 4 0 10 7 13 16 4 10 2 13 -7 9
-6 -4 -5 -1 4 7 9 7 14 18 12 25 -2 6 1 14 7 18 8 5 8 11 -1 21 -9 12 -9 13 3
9 8 -3 15 0 15 7 1 24 8 42 22 58 17 17 95 54 86 40 -3 -6 1 -7 9 -4 9 3 14
10 11 14 -3 5 4 6 15 3 11 -3 28 -2 37 2 21 9 33 11 86 13 26 1 36 6 31 14 -5
7 -3 8 7 3 17 -11 49 -14 49 -4 0 10 34 6 42 -6 5 -7 8 -7 8 0 0 6 132 10 372
11 205 1 402 4 438 8 36 4 91 8 122 9 32 1 58 6 58 11 0 5 8 2 17 -5 14 -12
15 -12 9 0 -7 10 0 12 33 8 23 -2 44 0 47 5 3 5 11 4 19 -2 9 -7 15 -8 20 -1
7 13 55 11 73 -2 9 -7 11 -6 6 7 -5 12 -20 16 -63 16 -144 1 -457 33 -581 60
-25 5 -94 18 -155 30 -60 11 -121 23 -135 26 -14 3 -36 7 -50 10 -14 3 -51 14
-83 24 -31 11 -60 19 -65 18 -4 -1 -25 6 -46 15 -22 10 -47 15 -55 12 -9 -3
-12 -3 -8 1 10 10 -73 46 -90 39 -8 -2 -12 -1 -9 3 3 4 -12 19 -33 31 -21 13
-44 33 -51 44 -16 26 -20 67 -7 67 6 0 8 3 4 6 -3 3 1 27 9 52 7 26 14 57 14
70 0 12 5 22 11 22 8 0 7 6 -2 17 -12 14 -12 16 0 8 11 -6 13 -2 9 19 -3 14
-2 26 2 26 8 0 10 9 13 62 1 21 4 38 7 38 6 0 11 26 13 73 1 15 6 27 10 27 5
0 5 5 2 10 -4 6 -11 7 -17 4 -7 -4 -8 -2 -4 5 4 6 11 9 16 6 9 -6 17 32 16 79
-1 19 3 32 7 29 4 -2 6 7 3 20 -2 14 -2 28 1 31 12 12 11 56 0 56 -7 0 -3 6 7
12 19 11 19 11 1 24 -16 12 -16 14 -3 14 13 0 16 9 14 43 -1 23 1 50 6 60 6
11 5 17 -2 17 -6 0 -8 4 -5 10 12 20 14 50 2 50 -8 0 -8 3 -2 8 13 9 15 52 3
52 -5 0 -6 6 -1 13 11 17 11 67 0 67 -5 0 -4 7 3 15 7 8 8 15 3 15 -6 0 -9 18
-8 40 2 33 -1 40 -13 35 -12 -4 -13 -3 -2 10 8 10 21 13 37 9 14 -4 53 -7 87
-8 33 -1 67 -5 74 -9 7 -5 12 -3 12 3 0 7 6 10 14 7 8 -3 17 -3 20 0 3 3 27 7
53 9 59 4 153 26 153 35 0 3 11 5 25 4 14 -2 27 1 31 6 3 5 13 9 23 9 9 0 35
9 57 20 l39 21 -32 -4 c-19 -2 -33 1 -34 7 0 7 -3 6 -5 -1 -4 -8 -13 -9 -27
-4 -12 4 -37 6 -55 4 -18 -1 -31 1 -28 5 5 9 -58 7 -73 -2 -7 -5 -8 -1 -4 10
4 12 3 15 -5 10 -25 -15 -247 53 -337 104 -100 56 -121 66 -180 87 -118 40
-214 64 -274 68 -99 5 -194 42 -236 91 -29 33 -27 29 -29 74 -1 19 -6 42 -10
50 -5 8 -5 12 -1 8 5 -5 17 15 27 44 10 28 23 55 29 59 7 4 8 12 4 19 -5 8 -4
11 2 7 6 -4 16 0 23 8 7 8 10 15 6 15 -3 0 31 36 75 81 63 62 87 80 103 76 12
-3 64 -15 116 -27z m5222 -1022 c27 -2 48 -6 48 -9 0 -4 10 -5 23 -5 12 1 27
-1 32 -5 6 -3 28 -9 50 -12 46 -7 63 -10 125 -27 25 -7 53 -14 62 -15 10 -2
23 -7 28 -10 5 -3 18 -8 27 -10 77 -15 318 -130 425 -202 26 -18 52 -33 57
-33 5 0 11 -3 13 -7 2 -5 30 -28 63 -53 33 -25 64 -51 68 -58 5 -7 12 -10 17
-7 5 3 11 -4 15 -15 3 -11 13 -20 21 -20 8 0 14 -3 14 -7 0 -5 24 -33 53 -63
228 -240 371 -515 417 -800 6 -41 13 -86 16 -100 11 -68 4 -307 -11 -380 -3
-14 -8 -41 -11 -60 -3 -19 -7 -43 -10 -52 -7 -25 -16 -71 -17 -85 0 -7 -4 -13
-9 -13 -4 0 -8 -13 -8 -29 0 -17 -5 -33 -11 -37 -6 -3 -9 -15 -6 -25 3 -12 1
-17 -6 -12 -6 4 -8 0 -4 -10 3 -10 2 -17 -4 -17 -6 0 -7 -4 -4 -10 3 -5 1 -10
-4 -10 -6 0 -10 -3 -9 -7 1 -5 -3 -18 -10 -29 -6 -12 -8 -24 -5 -28 3 -3 0 -6
-7 -6 -7 0 -10 -3 -7 -7 4 -3 -1 -15 -10 -26 -13 -15 -14 -18 -3 -12 11 6 10
3 -2 -12 -10 -11 -18 -25 -18 -31 0 -7 -5 -12 -12 -12 -6 0 -8 -3 -5 -7 4 -3
0 -15 -10 -25 -9 -10 -12 -18 -7 -18 5 0 4 -4 -1 -8 -6 -4 -26 -32 -45 -62
-19 -30 -43 -64 -53 -75 -9 -10 -15 -25 -13 -32 3 -8 -1 -10 -12 -6 -9 3 -14
3 -10 -1 4 -5 -5 -19 -19 -32 -14 -13 -23 -24 -19 -24 3 0 -2 -8 -11 -18 -62
-65 -91 -101 -85 -107 4 -4 2 -5 -4 -3 -6 2 -36 -23 -67 -54 -32 -32 -57 -55
-57 -52 0 4 -7 1 -15 -6 -8 -7 -12 -16 -9 -21 3 -5 -1 -9 -8 -9 -7 0 -28 -13
-47 -29 -19 -17 -38 -28 -43 -25 -4 3 -8 -2 -8 -10 0 -9 -7 -16 -15 -16 -8 0
-15 -4 -15 -9 0 -5 -9 -11 -20 -14 -14 -4 -18 -11 -14 -24 5 -15 4 -16 -5 -3
-10 13 -13 13 -25 -2 -7 -10 -16 -15 -19 -11 -4 3 -7 1 -7 -5 0 -7 -6 -12 -13
-12 -8 0 -24 -9 -37 -20 -13 -11 -29 -20 -37 -20 -7 0 -13 -5 -13 -11 0 -5 -4
-8 -9 -4 -5 3 -16 -2 -24 -10 -9 -8 -21 -15 -27 -15 -6 0 -8 -4 -5 -10 4 -6
-1 -7 -11 -3 -13 5 -15 3 -9 -7 5 -9 4 -11 -3 -6 -6 4 -23 -1 -37 -10 -14 -9
-25 -13 -25 -9 0 3 -12 -3 -26 -14 -15 -11 -30 -18 -35 -15 -5 3 -9 0 -9 -5 0
-6 -3 -11 -7 -10 -19 3 -52 -14 -46 -24 3 -6 1 -7 -6 -3 -6 4 -25 0 -43 -8
-17 -9 -37 -16 -45 -16 -7 0 -13 -5 -13 -12 0 -6 -3 -8 -6 -5 -4 3 -16 0 -28
-8 -26 -19 -46 -19 -46 0 0 8 -5 15 -11 15 -5 0 -8 4 -5 8 2 4 -4 27 -14 50
-11 24 -15 40 -11 37 14 -8 101 7 95 16 -3 5 0 9 5 9 6 0 11 -6 11 -12 0 -8 3
-9 8 -3 7 10 27 17 50 18 6 0 12 7 12 16 0 14 2 14 9 2 7 -12 13 -12 24 -3 7
7 17 9 20 5 4 -3 7 -1 7 6 0 7 4 10 9 7 21 -14 291 158 291 185 0 6 4 8 9 5
11 -7 33 19 23 28 -4 4 -2 6 4 4 11 -3 214 199 214 213 0 4 6 14 13 21 7 7 28
40 47 73 18 33 36 62 39 65 8 6 116 220 116 229 0 3 4 11 8 17 13 21 45 133
39 139 -3 3 -1 5 4 5 9 0 16 52 18 132 1 21 3 38 6 38 9 0 4 245 -5 260 -5 8
-4 11 2 7 13 -8 12 52 -1 72 -6 10 -5 12 2 7 7 -4 12 -3 12 3 0 5 -4 12 -10
16 -6 3 -6 15 0 29 5 13 7 26 5 27 -2 2 -6 31 -9 64 -7 70 -20 139 -46 250
-10 44 -22 97 -25 119 -3 21 -12 53 -19 70 -8 17 -29 69 -46 116 -65 173 -180
355 -286 455 -65 61 -95 85 -135 111 -24 16 -50 34 -56 41 -7 6 -26 17 -43 25
-16 7 -30 17 -30 22 0 4 -7 6 -15 3 -8 -4 -17 -2 -20 3 -3 5 -23 17 -43 26
-20 9 -49 22 -64 30 -16 9 -28 12 -28 7 0 -4 -4 -2 -9 6 -8 12 -12 13 -25 1
-14 -11 -16 -10 -10 4 6 15 -10 22 -38 17 -5 0 -8 4 -8 10 0 6 -6 9 -14 6 -8
-3 -16 -2 -18 3 -2 5 -12 11 -23 13 -11 2 -27 6 -35 9 -73 24 -79 25 -91 14
-9 -8 -10 -8 -4 3 6 11 3 13 -13 9 -12 -4 -22 -2 -22 4 0 5 -4 6 -10 3 -5 -3
-10 -1 -10 5 0 7 -6 10 -14 7 -7 -3 -24 0 -38 7 -13 7 -30 13 -38 13 -24 1
-69 11 -80 18 -5 3 -10 0 -10 -7 0 -10 -3 -9 -10 2 -5 8 -12 11 -16 7 -4 -4
-13 -2 -21 4 -10 9 -17 8 -29 -1 -12 -11 -15 -11 -12 1 2 11 -19 14 -114 14
-65 0 -118 -2 -118 -5 0 -3 -20 -7 -45 -8 -25 -1 -54 -6 -65 -12 -15 -8 -20
-8 -20 2 0 9 -3 9 -11 1 -6 -6 -18 -9 -25 -6 -8 3 -14 1 -14 -5 0 -6 -9 -8
-20 -5 -11 3 -20 0 -20 -6 0 -7 -9 -9 -25 -5 -20 5 -25 2 -25 -12 0 -11 -3
-15 -8 -9 -8 12 -27 13 -38 3 -4 -5 -16 -8 -26 -8 -10 0 -18 -4 -18 -9 0 -9
-33 -23 -58 -25 -7 -1 -17 -8 -22 -16 -11 -17 -13 -10 -10 39 1 23 -2 31 -10
26 -8 -5 -7 1 2 16 17 32 24 36 72 43 22 4 44 12 48 19 6 9 8 9 8 -1 0 -7 5
-10 11 -7 5 4 25 9 42 12 18 3 34 8 37 11 3 4 14 7 25 7 11 -1 40 3 65 8 68
13 89 16 165 23 39 4 72 8 74 10 3 3 310 -3 403 -8z m-137 -138 c3 -5 1 -10
-4 -10 -6 0 -11 5 -11 10 0 6 2 10 4 10 3 0 8 -4 11 -10z m115 -155 c19 -4 46
-8 60 -10 14 -2 25 -4 25 -5 0 -1 11 -3 25 -5 81 -10 354 -113 401 -152 8 -7
19 -13 22 -13 4 0 31 -16 60 -36 248 -172 436 -414 522 -669 29 -86 29 -87 47
-185 13 -73 16 -309 5 -385 -15 -105 -35 -188 -58 -243 -10 -23 -19 -46 -19
-50 -4 -21 -44 -102 -51 -102 -5 0 -8 -3 -7 -7 1 -5 -3 -18 -10 -29 -6 -12 -8
-24 -5 -28 3 -3 1 -6 -5 -6 -6 0 -16 -16 -23 -35 -7 -19 -17 -35 -21 -35 -4 0
-8 -5 -8 -11 0 -26 -169 -261 -227 -315 -13 -12 -19 -25 -15 -29 4 -5 2 -5 -5
-1 -6 3 -18 -2 -25 -12 -7 -10 -23 -24 -35 -31 -13 -6 -23 -19 -23 -27 0 -8
-4 -13 -9 -10 -5 3 -22 -6 -39 -22 -16 -15 -40 -34 -53 -42 -12 -8 -30 -22
-38 -30 -29 -27 -90 -65 -168 -106 -29 -15 -49 -32 -46 -37 3 -6 1 -7 -5 -3
-6 4 -29 -5 -52 -19 -22 -14 -40 -22 -40 -18 0 5 -4 3 -8 -3 -7 -10 -61 -37
-97 -48 -17 -5 -23 0 -34 29 -7 19 -16 33 -20 31 -4 -3 -8 5 -8 16 -1 12 -7
24 -13 28 -7 4 -10 9 -9 11 5 7 -25 69 -33 69 -5 0 -8 9 -8 21 0 11 -4 18 -8
15 -4 -2 -9 5 -9 16 -1 12 -8 25 -15 29 -7 5 -9 9 -4 9 6 0 1 7 -10 16 -10 8
-14 13 -7 10 8 -5 8 0 0 19 -7 14 -17 25 -24 25 -7 0 -10 6 -7 14 3 7 -4 28
-15 47 -11 18 -18 36 -15 41 3 4 -2 11 -10 14 -9 3 -13 10 -10 15 3 5 0 9 -6
9 -7 0 -10 7 -6 15 3 8 1 15 -4 15 -6 0 -10 7 -10 15 0 8 -4 15 -10 15 -5 0
-10 8 -10 18 0 10 -7 27 -15 38 -8 12 -11 24 -8 28 3 3 1 6 -5 6 -7 0 -12 6
-12 14 0 7 -11 34 -25 60 -13 25 -21 46 -18 46 4 0 2 5 -5 12 -7 7 -12 20 -12
30 0 10 -4 18 -10 18 -5 0 -10 6 -10 14 0 7 -7 19 -15 26 -8 7 -12 16 -9 22 3
5 1 14 -4 21 -6 7 -10 14 -10 17 0 11 -26 60 -32 60 -4 0 -7 6 -7 14 0 21 -24
76 -32 72 -3 -2 -7 6 -7 18 -1 13 -14 41 -28 64 -17 27 -22 42 -14 42 8 1 6 6
-4 14 -10 7 -18 20 -18 29 0 9 -7 22 -15 31 -9 8 -16 17 -16 18 1 15 -13 48
-20 48 -5 0 -5 7 -2 17 4 11 3 14 -5 9 -8 -5 -10 -2 -6 8 3 9 2 16 -3 16 -5 0
-10 9 -11 20 -4 43 -6 50 -14 50 -4 0 -8 11 -8 25 0 14 -4 25 -8 25 -4 0 -8 8
-9 18 -2 23 -7 45 -15 57 -6 10 -26 81 -29 100 0 6 -5 15 -11 22 -5 7 -7 17
-3 23 3 5 2 10 -3 10 -5 0 -9 6 -10 13 -2 29 -14 72 -21 77 -5 3 -7 13 -5 23
2 13 -2 17 -13 13 -12 -5 -13 -3 -6 6 11 14 13 48 3 48 -4 0 -7 6 -8 13 -5 38
-10 54 -21 76 -11 19 -11 22 1 15 10 -6 11 -5 1 8 -7 8 -10 18 -6 21 3 4 2 7
-4 7 -6 0 -10 8 -9 18 0 10 -5 16 -14 14 -12 -3 -13 -1 -2 9 15 16 16 33 1 23
-8 -4 -9 0 -4 15 4 13 2 21 -5 21 -6 0 -9 4 -6 9 8 12 -18 114 -26 105 -4 -3
-5 2 -4 13 2 10 -1 32 -6 48 -5 17 -11 44 -14 60 -8 54 -9 60 -18 74 -7 10 -6
12 4 6 10 -6 11 -4 4 6 -8 13 -12 38 -17 119 -3 38 10 60 30 53 7 -3 13 0 13
6 0 6 3 10 8 10 4 -1 9 0 12 1 3 1 12 3 20 5 8 2 40 13 71 24 31 11 67 22 80
25 13 3 48 12 77 20 28 8 52 12 52 10 0 -3 5 -2 12 2 14 9 27 10 143 20 44 3
81 7 83 9 5 5 274 -4 312 -10z m-4990 -805 c0 -5 -2 -10 -4 -10 -3 0 -8 5 -11
10 -3 6 -1 10 4 10 6 0 11 -4 11 -10z m4135 -168 c-3 -3 -11 0 -18 7 -9 10 -8
11 6 5 10 -3 15 -9 12 -12z m-4787 -1547 c47 -24 101 -48 114 -49 3 -1 10 -4
14 -8 4 -5 14 -8 22 -8 8 0 28 -6 45 -14 82 -35 91 -38 95 -27 2 6 13 1 25
-10 12 -11 30 -18 39 -15 10 2 18 0 18 -6 0 -6 6 -8 14 -5 8 3 17 3 20 -1 6
-6 23 -10 56 -16 8 -1 25 -8 38 -14 18 -10 22 -10 22 0 0 9 3 9 10 -2 5 -8 10
-11 10 -6 0 5 7 3 15 -4 9 -7 18 -10 21 -7 3 3 17 -1 32 -9 19 -9 28 -10 31
-3 2 8 5 8 10 0 4 -6 19 -12 34 -13 15 -1 27 -6 27 -10 0 -4 18 -8 39 -8 22 0
43 -5 46 -10 4 -6 10 -8 14 -6 4 3 25 0 47 -5 34 -8 53 -12 124 -24 8 -1 22
-5 30 -8 8 -3 35 -8 60 -11 54 -6 87 -13 100 -21 6 -3 10 0 10 7 0 10 2 10 9
-1 5 -8 16 -11 25 -8 9 4 16 3 16 -1 0 -4 12 -9 28 -10 15 -1 61 -7 102 -13
41 -6 85 -11 98 -11 12 0 22 -4 22 -8 0 -11 34 -7 42 5 5 7 8 6 8 0 0 -6 15
-12 33 -13 46 -4 60 -7 75 -15 7 -5 12 -3 12 3 0 6 4 8 10 5 5 -3 28 -8 51
-10 23 -2 50 -7 61 -11 16 -5 19 -3 12 7 -6 11 -5 12 7 3 8 -5 24 -9 37 -8 12
0 22 -2 22 -6 0 -4 25 -6 55 -6 30 1 55 -3 55 -7 0 -5 5 -5 10 -2 6 4 7 11 4
17 -4 5 4 4 17 -4 13 -8 45 -14 72 -14 26 1 47 -2 47 -5 0 -7 58 -4 66 4 4 3
16 2 26 -4 11 -6 31 -9 44 -6 13 2 24 0 24 -6 0 -5 7 -4 15 3 8 7 15 9 15 4 0
-5 43 -9 95 -9 52 0 95 -4 95 -9 0 -5 10 -1 22 10 12 10 18 14 15 8 -8 -14 20
-27 28 -14 4 7 13 6 26 0 14 -8 19 -7 19 2 0 8 3 9 8 3 9 -14 82 -13 82 0 0 6
4 4 9 -4 8 -12 12 -12 25 -2 9 8 16 9 16 3 0 -11 59 -10 78 2 7 4 12 3 12 -3
0 -10 31 -7 50 4 6 3 10 1 10 -5 0 -8 6 -8 20 0 11 6 20 7 20 2 0 -12 63 -2
72 12 5 8 8 7 8 -2 0 -7 5 -10 10 -7 6 3 10 2 10 -4 0 -7 9 -7 23 -3 12 5 43
8 70 7 29 -2 47 2 47 9 0 7 3 7 8 1 4 -5 14 -10 22 -10 8 0 18 5 22 10 5 7 8
6 8 0 0 -6 9 -11 20 -11 11 0 20 3 20 6 0 3 61 5 135 5 117 -1 135 1 130 15
-3 9 1 7 10 -4 11 -15 18 -17 26 -9 8 8 20 8 35 3 13 -5 26 -6 28 -1 3 4 27 7
53 5 26 -1 53 2 60 8 6 5 14 5 17 0 6 -11 66 -9 85 2 10 6 12 5 7 -2 -5 -8 1
-12 14 -12 12 0 18 4 15 10 -4 6 2 7 17 1 15 -6 31 -5 42 1 14 8 17 7 12 -1
-8 -12 6 -15 17 -5 4 4 28 7 54 7 27 0 54 4 61 9 7 7 17 7 25 1 6 -5 23 -8 37
-6 14 2 39 4 57 5 18 1 30 4 29 7 -2 3 18 5 45 4 36 -1 48 2 43 10 -5 9 -4 9
6 0 8 -7 20 -9 29 -4 9 4 29 7 44 6 15 -1 30 3 34 8 4 6 1 7 -7 2 -9 -5 -11
-4 -6 4 6 8 12 9 20 2 7 -6 23 -8 37 -5 13 3 40 8 59 11 19 3 38 10 42 17 5 7
8 7 8 -3 0 -11 5 -9 22 5 12 10 18 13 13 5 -6 -11 -4 -13 11 -6 10 4 28 7 39
7 10 -1 24 3 30 7 5 5 18 7 28 6 9 -2 17 1 17 6 0 6 5 7 10 4 6 -3 15 -3 22 1
7 4 26 9 42 11 17 2 34 9 38 16 6 9 8 9 8 -2 0 -11 3 -11 15 -1 8 6 19 9 25 5
5 -3 10 -1 10 5 0 6 4 9 9 6 12 -7 42 4 37 13 -3 4 8 6 22 5 15 -1 32 2 37 6
11 9 16 10 40 10 8 0 15 8 16 18 0 9 3 12 5 6 6 -14 44 -6 44 9 0 6 3 8 6 5 6
-7 82 17 121 37 12 7 20 14 18 17 -3 3 6 3 21 0 20 -4 25 -2 19 8 -5 8 -4 11
2 7 13 -8 73 21 80 39 3 10 10 8 28 -9 12 -12 21 -25 19 -28 -2 -3 10 -31 27
-62 16 -31 27 -57 23 -57 -4 0 1 -9 11 -20 10 -11 14 -20 9 -20 -5 0 -4 -4 1
-8 6 -4 16 -20 24 -37 7 -16 20 -42 27 -56 7 -14 11 -29 7 -33 -3 -3 -2 -6 4
-6 6 0 14 -10 18 -22 4 -13 8 -26 10 -30 1 -5 3 -15 4 -24 0 -8 5 -13 9 -10 5
3 9 0 9 -7 1 -25 29 -117 34 -113 3 3 6 -5 6 -17 1 -12 9 -47 18 -77 29 -100
48 -240 42 -305 -10 -90 -111 -242 -179 -268 -10 -3 -18 -11 -18 -17 0 -6 -4
-8 -10 -5 -5 3 -10 1 -10 -5 0 -6 -4 -9 -9 -6 -5 3 -12 -1 -15 -10 -3 -8 -10
-12 -16 -9 -9 5 -14 -7 -12 -26 1 -4 -7 -5 -16 -2 -10 2 -30 -7 -45 -21 -15
-14 -27 -20 -27 -14 0 6 -9 1 -20 -12 -11 -13 -23 -20 -27 -17 -3 4 -14 -3
-24 -15 -11 -11 -19 -17 -19 -13 0 4 -9 0 -21 -11 -12 -10 -24 -19 -28 -18
-13 2 -61 -18 -57 -24 2 -4 -7 -8 -21 -9 -14 0 -29 -7 -34 -15 -5 -7 -9 -10
-9 -6 0 3 -17 -2 -37 -12 -21 -10 -39 -17 -41 -15 -3 3 64 95 77 105 10 8 31
43 37 62 4 10 10 18 13 18 4 0 23 33 41 73 19 39 38 73 42 75 4 2 3 12 -3 23
-7 14 -7 19 2 17 7 -2 14 6 16 17 3 11 7 27 10 35 4 8 7 18 8 23 2 4 3 8 4 10
2 1 4 15 6 32 2 16 9 50 15 75 6 25 12 70 15 100 2 30 5 55 5 55 4 0 22 224
24 295 3 67 -12 248 -21 265 -8 14 -12 15 -24 3 -8 -8 -20 -13 -27 -10 -6 2
-12 -1 -12 -8 0 -6 -4 -9 -9 -5 -5 3 -12 1 -16 -5 -4 -6 -11 -8 -16 -5 -5 4
-9 2 -9 -4 0 -6 -12 -14 -27 -17 -16 -4 -44 -14 -63 -22 -19 -8 -44 -17 -55
-18 -11 -2 -29 -6 -40 -8 -11 -2 -26 -5 -33 -5 -7 -1 -11 -5 -8 -9 3 -5 -9 -6
-26 -4 -19 3 -28 1 -25 -5 4 -6 -4 -9 -17 -8 -14 2 -36 -3 -50 -10 -15 -8 -26
-10 -26 -4 0 6 -6 7 -12 2 -7 -4 -17 -8 -23 -10 -5 -1 -21 -5 -35 -8 -14 -4
-37 -6 -53 -6 -15 0 -25 -4 -23 -8 3 -4 -9 -5 -26 -3 -24 4 -29 2 -23 -9 7
-11 6 -12 -6 -2 -8 6 -20 8 -27 4 -7 -4 -26 -7 -43 -6 -23 1 -29 -2 -24 -13 4
-11 2 -12 -7 -5 -17 14 -68 14 -68 1 0 -6 -7 -5 -15 2 -8 7 -15 9 -15 4 0 -5
-35 -10 -77 -12 -56 -2 -82 -7 -97 -20 -11 -9 -16 -12 -13 -5 10 16 -11 27
-26 14 -8 -6 -18 -6 -27 -1 -8 5 -18 6 -22 4 -9 -6 -135 -12 -353 -18 -77 -2
-148 -7 -157 -11 -11 -4 -18 -3 -18 4 0 7 -8 8 -25 1 -17 -6 -25 -6 -25 1 0 6
-6 7 -16 1 -9 -5 -32 -6 -50 -2 -19 4 -34 5 -34 1 0 -4 -25 -4 -56 -1 -30 3
-58 2 -60 -2 -3 -5 -11 -5 -18 1 -7 6 -18 6 -26 1 -7 -4 -24 -4 -37 1 -16 6
-23 5 -23 -4 0 -8 -4 -7 -10 3 -8 12 -10 12 -10 1 0 -10 -3 -11 -13 -2 -8 6
-17 8 -21 4 -9 -10 -36 -13 -36 -4 0 4 -9 7 -20 8 -11 1 -20 -4 -20 -10 0 -8
-3 -8 -8 -2 -4 6 -41 11 -82 12 -41 1 -126 3 -187 6 -81 3 -111 1 -106 -7 4
-6 -1 -5 -10 3 -14 11 -17 11 -17 0 0 -11 -2 -11 -10 1 -5 8 -10 11 -10 6 0
-5 -6 -3 -13 3 -8 6 -17 8 -21 4 -11 -11 -36 -12 -36 -1 0 6 -6 5 -15 -2 -9
-7 -15 -8 -15 -2 0 11 -18 11 -37 -1 -7 -5 -13 -4 -13 0 0 5 -9 9 -20 10 -11
1 -20 -4 -20 -10 0 -7 -4 -6 -10 3 -5 8 -12 12 -15 8 -3 -3 -22 -2 -41 2 -21
5 -34 4 -34 -2 0 -7 -5 -7 -12 -1 -7 5 -39 9 -70 8 -32 0 -58 4 -58 10 0 6 -4
4 -9 -4 -6 -9 -11 -10 -15 -2 -5 7 -13 8 -25 2 -10 -6 -23 -6 -32 0 -21 13
-42 11 -33 -3 6 -10 4 -10 -7 -2 -13 11 -47 15 -146 18 -24 0 -43 3 -43 6 0 3
-17 6 -37 6 -39 1 -161 11 -243 20 -25 3 -67 7 -95 9 -27 2 -50 5 -50 6 0 3
-33 6 -105 12 -36 3 -72 8 -80 11 -8 3 -35 7 -60 10 -61 7 -109 13 -145 20
-16 4 -52 9 -80 12 -27 3 -53 8 -56 10 -4 2 -24 6 -45 9 -22 3 -74 13 -117 21
-42 9 -89 18 -104 20 -29 5 -157 33 -185 40 -48 11 -65 15 -88 19 -25 4 -33 6
-105 25 -37 10 -72 18 -99 23 -6 1 -13 4 -16 7 -3 3 -39 16 -80 30 -41 13 -77
27 -80 30 -3 3 -14 7 -25 8 -26 5 -148 63 -156 75 -3 5 -10 9 -15 9 -5 0 -8 5
-6 11 2 7 4 19 5 29 1 9 5 14 9 12 4 -3 8 2 8 10 0 22 12 20 68 -9z m-422
-920 c-2 -7 -2 -16 2 -20 3 -3 7 -16 8 -28 0 -12 6 -40 13 -62 7 -22 14 -44
15 -50 8 -25 11 -31 22 -54 7 -14 11 -28 8 -33 -3 -4 2 -8 11 -8 9 0 14 -4 10
-9 -3 -5 1 -16 9 -24 8 -8 13 -17 11 -19 -3 -2 15 -26 39 -52 66 -71 68 -73
51 -73 -8 0 -12 4 -9 9 3 4 0 9 -5 9 -6 1 -16 2 -22 3 -6 0 -16 9 -23 19 -7 9
-17 17 -21 17 -4 0 -18 10 -32 23 -64 57 -87 85 -104 124 -20 44 -31 103 -19
103 4 0 7 6 7 13 3 46 11 99 17 104 3 3 1 12 -6 20 -8 11 -7 12 6 7 10 -4 15
-12 12 -19z"/>
<path d="M9360 11132 c0 -5 -19 -19 -42 -32 -24 -13 -46 -28 -50 -34 -4 -6 -8
-8 -8 -4 0 4 -19 -3 -42 -16 -39 -21 -196 -90 -208 -91 -3 0 -11 -4 -18 -8
-14 -10 -324 -77 -362 -79 -8 0 -48 -7 -89 -14 -91 -17 -112 -21 -176 -29 -59
-7 -82 -11 -240 -35 -66 -10 -177 -26 -247 -36 -70 -10 -126 -20 -123 -22 2
-2 57 1 122 8 133 13 211 21 233 22 8 0 58 6 110 14 52 7 114 14 138 15 23 2
42 7 42 12 0 4 5 5 10 2 6 -4 42 -2 80 4 39 6 89 14 113 16 168 21 365 66 482
110 76 29 212 99 249 128 23 19 47 77 31 77 -3 0 -5 -4 -5 -8z"/>
<path d="M4521 6610 c-18 -16 -45 -39 -61 -52 -16 -12 -26 -26 -24 -30 3 -5 2
-7 -3 -6 -16 5 -55 -30 -48 -43 5 -8 4 -10 -3 -5 -14 8 -43 -46 -44 -83 -1
-14 7 -41 16 -58 18 -35 92 -84 131 -87 14 0 25 -4 25 -7 0 -3 6 -6 13 -6 6
-1 46 -5 87 -9 120 -13 370 -10 370 5 0 9 -83 20 -199 27 -36 2 -66 4 -66 4 0
0 -38 3 -85 6 -89 5 -145 11 -145 14 0 1 -13 4 -28 6 -16 1 -35 8 -43 14 -20
18 -28 77 -15 108 17 37 54 92 63 92 12 0 118 106 118 117 0 23 -28 19 -59 -7z"/>
<path d="M5418 6463 c7 -3 16 -2 19 1 4 3 -2 6 -13 5 -11 0 -14 -3 -6 -6z"/>
<path d="M5290 6448 c-36 -5 -130 -19 -210 -33 -80 -13 -163 -26 -185 -29 -22
-3 -69 -10 -105 -15 -36 -5 -115 -8 -177 -8 -61 1 -109 -1 -107 -5 16 -26 155
-32 318 -14 67 7 568 104 575 111 6 7 -32 4 -109 -7z"/>
<path d="M5768 6015 c56 -41 243 -77 492 -94 148 -10 845 -4 845 8 0 0 68 3
150 6 83 3 168 8 190 10 22 2 60 5 85 5 25 1 48 7 52 13 6 9 8 9 8 0 0 -7 5
-13 11 -13 5 0 8 3 6 8 -3 4 19 7 48 6 30 -1 60 3 67 8 7 5 -58 6 -152 3 -91
-3 -246 -7 -345 -10 -99 -3 -207 -8 -240 -10 -91 -8 -713 -9 -770 -2 -27 4
-88 9 -135 12 -126 9 -223 27 -315 60 -17 6 -17 5 3 -10z"/>
<path d="M7744 5981 c3 -5 15 -7 26 -4 28 7 25 13 -6 13 -14 0 -23 -4 -20 -9z"/>
<path d="M6856 5863 c-22 -78 -39 -160 -40 -195 -1 -16 -3 -28 -6 -28 -3 0 -5
-26 -5 -57 0 -32 -2 -62 -4 -66 -1 -5 -2 -68 -2 -140 2 -130 -1 -150 -39 -232
-73 -159 -9 -404 106 -405 42 0 81 38 75 73 -1 5 3 6 9 2 10 -6 11 -5 15 31 1
12 5 26 9 32 3 6 3 13 -2 16 -4 2 -7 25 -6 50 1 25 -1 46 -5 46 -4 0 -7 10 -8
23 -2 52 -12 107 -23 126 -6 12 -8 21 -5 21 3 0 1 10 -6 21 -8 16 -8 20 1 14
9 -5 9 -3 2 11 -9 18 -15 53 -27 154 -3 25 -8 63 -11 85 -10 78 -13 142 -14
288 0 141 -3 168 -14 130z m-11 -808 c-2 -15 3 -29 13 -35 11 -6 12 -9 4 -10
-7 0 -10 -4 -7 -10 3 -6 -1 -7 -9 -4 -17 7 -23 84 -7 84 4 0 7 -11 6 -25z"/>
<path d="M8526 5703 c-2 -10 -8 -54 -11 -97 -4 -43 -9 -88 -11 -100 -17 -80
-7 -502 13 -556 3 -8 5 -25 4 -37 -1 -13 1 -23 6 -23 4 0 8 -15 9 -32 1 -40 7
-79 29 -178 9 -41 19 -88 22 -105 3 -16 8 -32 11 -35 4 -3 8 -20 10 -39 1 -19
7 -40 12 -46 5 -7 8 -14 5 -17 -5 -5 38 -154 57 -198 6 -14 12 -32 13 -40 2
-13 31 -92 54 -145 35 -82 117 -237 138 -261 13 -16 22 -24 20 -19 -2 6 -18
40 -36 76 -17 37 -31 72 -31 78 0 6 -4 19 -9 29 -11 20 -67 189 -76 229 -2 10
-11 45 -20 78 -23 86 -33 126 -39 155 -4 14 -17 75 -31 135 -34 152 -33 147
-34 173 -1 13 -4 21 -8 19 -5 -3 -8 7 -8 21 -1 25 -7 74 -20 147 -12 69 -14
80 -15 85 -3 7 -6 56 -8 103 -2 27 -6 36 -14 31 -10 -6 -10 -4 0 7 6 7 12 21
12 31 0 10 -6 18 -12 18 -9 0 -9 3 -3 8 12 8 13 41 2 59 -4 6 -3 14 2 18 6 3
7 13 4 21 -3 9 -7 100 -8 203 -2 221 -2 221 -14 221 -5 0 -12 -8 -15 -17z"/>
<path d="M4967 4026 c-77 -32 -129 -67 -192 -130 -48 -47 -95 -116 -79 -116 4
0 2 -6 -3 -12 -15 -19 -24 -78 -13 -78 5 0 7 -6 4 -14 -7 -17 10 -51 41 -86
12 -14 30 -46 39 -72 10 -27 20 -48 22 -48 3 0 2 19 -2 43 -14 93 -9 190 16
267 21 66 31 83 89 140 37 36 93 80 126 97 47 25 54 32 35 32 -14 1 -51 -10
-83 -23z"/>
</g>
</svg>
